<?xml version="1.0" standalone="no"?>
<!DOCTYPE svg PUBLIC "-//W3C//DTD SVG 1.1//EN" "http://www.w3.org/Graphics/SVG/1.1/DTD/svg11.dtd" >
<svg>
<metadata>
Created by FontForge 20110222 at Thu May  2 16:31:54 2013
 By www-data
Spaced and kerned with iKern.
</metadata>
<defs>
<font id="MuseoSansCond-300" horiz-adv-x="297" >
  <font-face 
    font-family="Museo Sans Cond 300"
    font-weight="300"
    font-stretch="condensed"
    units-per-em="1000"
    panose-1="2 0 0 0 0 0 0 0 0 0"
    ascent="750"
    descent="-250"
    x-height="503"
    cap-height="703"
    bbox="-92 -213 1088 883"
    underline-thickness="50"
    underline-position="-50"
    stemh="59"
    stemv="67"
    unicode-range="U+0020-FB04"
  />
<missing-glyph horiz-adv-x="393" 
d="M4 0v700h385v-700h-385zM196 395l131 255h-262zM219 350l131 -255v510zM42 95l131 255l-131 255v-510zM65 50h262l-131 255z" />
    <glyph glyph-name="f_f" unicode="ff" horiz-adv-x="527" 
d="M31 446v57h48v18c0 166 95 187 138 187c9 0 19 0 29 -2v-58c-5 1 -11 2 -17 2c-30 0 -84 -14 -84 -129v-18h199v18c0 166 95 187 138 187c9 0 18 0 29 -2v-58c-5 1 -11 2 -18 2c-29 0 -83 -14 -83 -129v-18h95v-57h-95v-446h-66v446h-199v-446h-66v446h-48z" />
    <glyph glyph-name="fi" unicode="fi" horiz-adv-x="451" 
d="M31 446v57h48v18c0 166 95 187 138 187c9 0 18 0 29 -2v-58c-5 1 -11 2 -17 2c-30 0 -84 -14 -84 -129v-18h242v-503h-65v446h-177v-446h-66v446h-48zM319 617v86h71v-86h-71z" />
    <glyph glyph-name="fl" unicode="fl" horiz-adv-x="475" 
d="M329 119v584h66v-569c0 -68 20 -78 43 -78c5 0 9 0 13 1v-59c-6 -1 -12 -2 -23 -2c-38 0 -99 13 -99 123zM79 0v442h-48v57h48v22c0 164 93 187 140 187c9 0 19 0 29 -2v-59c-5 1 -11 2 -17 2c-41 0 -85 -24 -85 -128v-22h95v-57h-95v-442h-67z" />
    <glyph glyph-name="f_f_i" unicode="ffi" horiz-adv-x="723" 
d="M31 446v57h48v18c0 166 95 187 138 187c9 0 18 0 29 -2v-58c-5 1 -11 2 -17 2c-30 0 -84 -14 -84 -129v-18h199v18c0 166 95 187 138 187c9 0 18 0 29 -2v-58c-5 1 -11 2 -18 2c-29 0 -83 -14 -83 -129v-18h250v-503h-66v446h-184v-446h-66v446h-199v-446h-66v446h-48z
M591 617v86h71v-86h-71z" />
    <glyph glyph-name="f_f_l" unicode="ffl" horiz-adv-x="740" 
d="M31 446v57h48v18c0 166 95 187 138 187c9 0 18 0 29 -2v-58c-5 1 -11 2 -17 2c-30 0 -84 -14 -84 -129v-18h199v18c0 166 95 187 138 187c9 0 18 0 29 -2v-58c-5 1 -11 2 -18 2c-29 0 -83 -14 -83 -129v-18h95v-57h-95v-446h-66v446h-199v-446h-66v446h-48zM594 119v584
h66v-569c0 -68 20 -78 43 -78c5 0 9 0 13 1v-59c-6 -1 -12 -2 -23 -2c-38 0 -99 13 -99 123z" />
    <glyph glyph-name="f_j" unicode="fj" horiz-adv-x="458" 
d="M79 0v446h-48v57h48v18c0 166 95 187 138 187c9 0 18 0 29 -2v-58c-5 1 -11 2 -17 2c-30 0 -84 -14 -84 -129v-18h250v-522c0 -167 -98 -187 -144 -187c-9 0 -18 1 -24 3v57c3 -1 9 -2 16 -2c30 0 86 16 86 131v463h-184v-446h-66zM326 617v86h70v-86h-70z" />
    <glyph glyph-name=".notdef" horiz-adv-x="393" 
d="M4 0v700h385v-700h-385zM196 395l131 255h-262zM219 350l131 -255v510zM42 95l131 255l-131 255v-510zM65 50h262l-131 255z" />
    <glyph glyph-name="space" unicode=" " horiz-adv-x="198" 
 />
    <glyph glyph-name="exclam" unicode="!" horiz-adv-x="217" 
d="M79 184l-4 519h67l-4 -519h-59zM74 0v77h69v-77h-69z" />
    <glyph glyph-name="quotedbl" unicode="&#x22;" horiz-adv-x="279" 
d="M164 544v169h53v-169h-53zM62 544v169h53v-169h-53z" />
    <glyph glyph-name="numbersign" unicode="#" horiz-adv-x="564" 
d="M116 0l27 195h-105l8 55h105l25 198h-103l9 55h102l27 200h56l-27 -200h127l27 200h55l-27 -200h104l-9 -55h-103l-26 -198h103l-8 -55h-104l-25 -195h-55l26 195h-128l-25 -195h-56zM206 250h127l26 198h-127z" />
    <glyph glyph-name="dollar" unicode="$" horiz-adv-x="439" 
d="M41 64l33 54c34 -30 86 -55 135 -55c71 0 119 45 119 116c0 163 -273 145 -273 344c0 86 52 157 144 174v110h50v-106c46 0 99 -15 137 -40l-26 -59c-28 20 -79 38 -119 38c-75 0 -117 -53 -117 -115c0 -154 274 -138 274 -342c0 -91 -54 -163 -149 -179v-107h-50v105
c-57 2 -113 22 -158 62z" />
    <glyph glyph-name="percent" unicode="%" horiz-adv-x="586" 
d="M157 437c-70 0 -113 62 -113 138c0 77 43 140 113 140c69 0 114 -63 114 -140c0 -76 -45 -138 -114 -138zM52 0l418 703h63l-417 -703h-64zM157 491c40 0 57 38 57 85c0 46 -17 85 -57 85c-41 0 -57 -39 -57 -85c0 -47 16 -85 57 -85zM316 127c0 76 44 139 113 139
s114 -63 114 -139c0 -77 -45 -139 -114 -139s-113 62 -113 139zM373 127c0 -47 16 -85 56 -85c41 0 58 38 58 85c0 46 -17 85 -58 85c-40 0 -56 -39 -56 -85z" />
    <glyph glyph-name="ampersand" unicode="&#x26;" horiz-adv-x="522" 
d="M47 192c0 91 42 160 107 186v4c-56 29 -84 88 -84 157c0 119 83 176 169 176c23 0 50 -4 68 -11l-16 -58c-14 5 -29 9 -48 9c-61 0 -105 -50 -105 -120c0 -56 29 -129 111 -129h103v98h65v-98h73v-61h-73v-128c0 -165 -86 -229 -183 -229c-109 0 -187 79 -187 204z
M116 196c0 -86 44 -144 118 -144c59 0 118 38 118 177v116h-105c-78 0 -131 -55 -131 -149z" />
    <glyph glyph-name="quotesingle" unicode="'" horiz-adv-x="178" 
d="M62 544v169h54v-169h-54z" />
    <glyph glyph-name="parenleft" unicode="(" horiz-adv-x="228" 
d="M134 -95c-55 120 -88 274 -88 432c0 144 32 276 88 393h59c-56 -121 -88 -253 -88 -393c0 -150 30 -297 88 -432h-59z" />
    <glyph glyph-name="parenright" unicode=")" horiz-adv-x="228" 
d="M35 -95c59 135 87 282 87 432c0 140 -30 272 -87 393h59c56 -117 89 -249 89 -393c0 -158 -34 -312 -89 -432h-59z" />
    <glyph glyph-name="asterisk" unicode="*" horiz-adv-x="405" 
d="M133 337l-53 33l81 125v2l-115 43l23 62l107 -52l-5 153h63l-6 -153l108 51l24 -61l-115 -43v-2l79 -126l-51 -33l-69 126h-2z" />
    <glyph glyph-name="plus" unicode="+" horiz-adv-x="477" 
d="M36 255v58h174v255h57v-255h174v-58h-174v-255h-57v255h-174z" />
    <glyph glyph-name="comma" unicode="," horiz-adv-x="214" 
d="M33 -97l47 180h68l-61 -180h-54z" />
    <glyph glyph-name="hyphen" unicode="-" horiz-adv-x="340" 
d="M59 253v62h222v-62h-222z" />
    <glyph glyph-name="period" unicode="." horiz-adv-x="188" 
d="M59 0v80h70v-80h-70z" />
    <glyph glyph-name="slash" unicode="/" horiz-adv-x="322" 
d="M34 -42l196 784h59l-196 -784h-59z" />
    <glyph glyph-name="zero" unicode="0" horiz-adv-x="490" 
d="M245 -12c-153 0 -191 160 -191 364c0 202 38 363 191 363c154 0 191 -161 191 -363c0 -204 -37 -364 -191 -364zM245 51c104 0 122 131 122 301c0 168 -18 300 -122 300s-122 -132 -122 -300c0 -170 18 -301 122 -301z" />
    <glyph glyph-name="one" unicode="1" horiz-adv-x="379" 
d="M47 0v59h121v514c0 20 1 38 1 38h-2s-5 -14 -25 -41l-54 -67l-42 40l127 160h60v-644h118v-59h-304z" />
    <glyph glyph-name="two" unicode="2" horiz-adv-x="452" 
d="M57 0c-3 16 -4 30 -4 47c0 234 271 273 271 474c0 81 -44 130 -114 130c-46 0 -92 -22 -118 -62l-47 37c33 54 105 89 172 89c107 0 177 -73 177 -190c0 -228 -269 -276 -272 -464h280v-61h-345z" />
    <glyph glyph-name="three" unicode="3" horiz-adv-x="443" 
d="M39 50l34 53c27 -27 65 -51 119 -51c75 0 135 55 135 155c0 96 -58 148 -158 148h-46l-14 43l166 210c24 29 30 35 30 35v2s-16 -2 -44 -2h-196v60h322v-52l-192 -238c112 -6 201 -69 201 -204c0 -129 -78 -221 -199 -221c-59 0 -116 19 -158 62z" />
    <glyph glyph-name="four" unicode="4" horiz-adv-x="473" 
d="M30 191v48l256 464h76v-450h76v-62h-76v-191h-65v191h-267zM102 253h195v297c0 30 2 63 2 63h-2s-9 -26 -22 -50l-173 -308v-2z" />
    <glyph glyph-name="five" unicode="5" horiz-adv-x="442" 
d="M44 50l35 53c26 -28 68 -51 115 -51c82 0 137 70 137 168c0 104 -63 162 -142 162c-27 0 -58 -8 -81 -20l-40 17l27 324h270v-60h-211l-15 -172c-2 -21 -5 -40 -5 -40h2c20 9 43 12 68 12c101 0 197 -82 197 -224c0 -134 -87 -231 -203 -231c-55 0 -112 21 -154 62z" />
    <glyph glyph-name="six" unicode="6" horiz-adv-x="472" 
d="M253 -12c-132 0 -203 136 -203 333c0 173 53 394 244 394c33 0 73 -7 102 -24l-21 -59c-22 13 -57 20 -81 20c-126 0 -163 -142 -173 -272h1c29 41 76 68 134 68c108 0 176 -90 176 -228c0 -141 -68 -232 -179 -232zM256 51c74 0 107 73 107 167c0 99 -39 170 -120 170
c-69 0 -122 -56 -122 -128c0 -70 32 -209 135 -209z" />
    <glyph glyph-name="seven" unicode="7" horiz-adv-x="416" 
d="M77 0l220 576c14 38 29 67 29 67v2s-14 -2 -39 -2h-251v60h358v-49l-248 -654h-69z" />
    <glyph glyph-name="eight" unicode="8" horiz-adv-x="473" 
d="M44 181c0 119 86 187 113 206c-51 37 -91 84 -91 160c0 82 49 168 171 168c127 0 177 -80 177 -169c0 -101 -69 -176 -89 -196c55 -38 100 -88 100 -169c0 -103 -73 -193 -193 -193c-117 0 -188 85 -188 193zM357 177c0 94 -81 133 -152 177c-21 -13 -92 -63 -92 -167
c0 -82 46 -137 121 -137c81 0 123 63 123 127zM134 551c0 -90 74 -129 143 -171c15 15 70 71 70 160c0 65 -33 113 -110 113c-76 0 -103 -47 -103 -102z" />
    <glyph glyph-name="nine" unicode="9" horiz-adv-x="471" 
d="M68 12l23 59c21 -13 54 -20 80 -20c127 0 169 142 179 272h-2c-29 -41 -75 -68 -133 -68c-108 0 -171 91 -171 227c0 143 68 233 178 233c121 0 199 -137 199 -333c0 -174 -59 -394 -250 -394c-35 0 -72 7 -103 24zM228 315c69 0 122 56 122 128c0 70 -36 209 -131 209
c-71 0 -107 -72 -107 -167c0 -99 38 -170 116 -170z" />
    <glyph glyph-name="colon" unicode=":" horiz-adv-x="189" 
d="M59 423v80h71v-80h-71zM59 0v81h71v-81h-71z" />
    <glyph glyph-name="semicolon" unicode=";" horiz-adv-x="233" 
d="M92 423v80h70v-80h-70zM51 -97l40 180h69l-55 -180h-54z" />
    <glyph glyph-name="less" unicode="&#x3c;" horiz-adv-x="477" 
d="M51 261v45l355 206v-68l-279 -159v-2l279 -159v-68z" />
    <glyph glyph-name="equal" unicode="=" horiz-adv-x="477" 
d="M56 342v58h364v-58h-364zM56 167v59h364v-59h-364z" />
    <glyph glyph-name="greater" unicode="&#x3e;" horiz-adv-x="477" 
d="M71 56v68l278 159v2l-278 159v68l354 -206v-45z" />
    <glyph glyph-name="question" unicode="?" horiz-adv-x="361" 
d="M121 184v42c0 160 133 178 133 303c0 69 -38 123 -105 123c-29 0 -63 -9 -85 -28l-29 51c29 26 77 41 121 41c103 0 167 -74 167 -183c0 -158 -138 -170 -138 -313v-36h-64zM119 0v77h69v-77h-69z" />
    <glyph glyph-name="at" unicode="@" horiz-adv-x="614" 
d="M48 250c0 204 109 359 285 359c121 0 189 -79 189 -186v-320h55v-54h-200c-106 0 -161 88 -161 192c0 103 55 192 161 192h81c0 72 -50 118 -126 118c-138 0 -218 -132 -218 -301c0 -182 94 -316 223 -316v-58c-167 0 -289 158 -289 374zM277 242c0 -76 36 -137 105 -137
h76v275h-74c-71 0 -107 -63 -107 -138z" />
    <glyph glyph-name="A" unicode="A" horiz-adv-x="495" 
d="M16 0l195 703h72l196 -703h-68l-61 224h-205l-61 -224h-68zM158 283h179l-69 255c-9 33 -19 92 -19 92h-3s-10 -58 -19 -92z" />
    <glyph glyph-name="B" unicode="B" horiz-adv-x="484" 
d="M76 0v703h167c101 0 177 -65 177 -176c0 -77 -39 -128 -82 -154v-2c58 -19 104 -85 104 -177c0 -124 -76 -194 -204 -194h-162zM143 398h112c52 0 96 49 96 124c0 74 -44 121 -111 121h-97v-245zM143 61h92c97 0 138 53 138 135c0 91 -50 143 -111 143h-119v-278z" />
    <glyph glyph-name="C" unicode="C" horiz-adv-x="544" 
d="M43 355c0 207 111 360 297 360c58 0 122 -18 166 -57l-29 -58c-32 30 -88 52 -138 52c-143 0 -227 -128 -227 -295c0 -168 86 -306 225 -306c56 0 112 22 155 57l26 -57c-45 -40 -113 -63 -183 -63c-182 0 -292 161 -292 367z" />
    <glyph glyph-name="D" unicode="D" horiz-adv-x="575" 
d="M76 0v703h180c165 0 275 -129 275 -351c0 -224 -110 -352 -275 -352h-180zM143 61h107c128 0 211 102 211 291c0 187 -83 290 -211 290h-107v-581z" />
    <glyph glyph-name="E" unicode="E" horiz-adv-x="433" 
d="M76 0v703h312v-60h-245v-258h199v-60h-199v-264h258v-61h-325z" />
    <glyph glyph-name="F" unicode="F" horiz-adv-x="397" 
d="M76 0v703h293v-60h-226v-266h194v-60h-194v-317h-67z" />
    <glyph glyph-name="G" unicode="G" horiz-adv-x="594" 
d="M43 352c0 223 120 363 296 363c63 0 129 -21 177 -60l-29 -57c-36 33 -92 54 -150 54c-135 0 -225 -114 -225 -298c0 -189 98 -302 219 -302c61 0 120 25 152 74v149h-90v61h152v-336h-57v31c0 13 2 28 2 28h-2c-30 -38 -93 -71 -165 -71c-149 0 -280 136 -280 364z" />
    <glyph glyph-name="H" unicode="H" horiz-adv-x="581" 
d="M76 0v703h67v-321h296v321h66v-703h-66v322h-296v-322h-67z" />
    <glyph glyph-name="I" unicode="I" horiz-adv-x="219" 
d="M76 0v703h67v-703h-67z" />
    <glyph glyph-name="J" unicode="J" horiz-adv-x="413" 
d="M25 192v33h67v-33c0 -118 49 -141 92 -141c45 0 90 25 90 141v451h-131v60h198v-511c0 -157 -80 -204 -157 -204c-79 0 -159 48 -159 204z" />
    <glyph glyph-name="K" unicode="K" horiz-adv-x="468" 
d="M76 0v703h67v-304h81l147 304h73l-161 -332v-2l170 -369h-74l-155 336h-81v-336h-67z" />
    <glyph glyph-name="L" unicode="L" horiz-adv-x="405" 
d="M76 0v703h67v-642h247v-61h-314z" />
    <glyph glyph-name="M" unicode="M" horiz-adv-x="660" 
d="M56 0l44 703h72l133 -402c11 -37 25 -94 25 -94h2s13 57 24 94l132 402h72l44 -703h-63l-30 490c-2 39 -1 97 -1 97h-2s-14 -68 -27 -105l-117 -351h-67l-117 351c-12 36 -27 107 -27 107h-2s0 -60 -2 -99l-29 -490h-64z" />
    <glyph glyph-name="N" unicode="N" horiz-adv-x="583" 
d="M76 0v703h68l261 -497c19 -35 40 -92 40 -92h2s-5 57 -5 94v495h64v-703h-68l-261 500c-18 36 -39 93 -39 93h-2s5 -58 5 -95v-498h-65z" />
    <glyph glyph-name="O" unicode="O" horiz-adv-x="642" 
d="M43 356c0 221 119 359 278 359s278 -138 278 -359c0 -224 -119 -368 -278 -368s-278 143 -278 368zM112 356c0 -190 90 -304 209 -304c118 0 208 114 208 304c0 186 -90 295 -208 295c-119 0 -209 -109 -209 -295z" />
    <glyph glyph-name="P" unicode="P" horiz-adv-x="473" 
d="M76 0v703h171c115 0 200 -82 200 -213c0 -130 -85 -214 -200 -214h-104v-276h-67zM143 336h95c83 0 140 59 140 154c0 96 -58 153 -140 153h-95v-307z" />
    <glyph glyph-name="Q" unicode="Q" horiz-adv-x="642" 
d="M43 357c0 220 119 358 278 358s278 -138 278 -359c0 -109 -31 -195 -74 -254l77 -75l-40 -44l-74 74c-43 -42 -100 -69 -167 -69c-159 0 -278 143 -278 369zM112 357c0 -192 90 -306 209 -306c46 0 87 17 123 52l-86 87l40 44l79 -85c33 52 52 120 52 207
c0 186 -89 295 -208 295s-209 -109 -209 -294z" />
    <glyph glyph-name="R" unicode="R" horiz-adv-x="489" 
d="M76 0v703h179c25 0 63 -6 93 -23c53 -28 90 -91 90 -175c0 -105 -61 -165 -110 -189v-2s8 -14 15 -31l121 -283h-74l-121 296h-126v-296h-67zM143 357h108c58 0 119 54 119 146c0 53 -19 97 -52 118c-19 13 -49 21 -71 21h-104v-285z" />
    <glyph glyph-name="S" unicode="S" horiz-adv-x="420" 
d="M32 53l33 57c34 -34 81 -59 132 -59c68 0 115 47 115 122c0 170 -265 152 -265 358c0 102 69 184 189 184c50 0 98 -14 140 -43l-26 -60c-26 21 -75 40 -114 40c-80 0 -120 -57 -120 -121c0 -162 265 -141 265 -354c0 -107 -66 -189 -184 -189c-60 0 -119 22 -165 65z
" />
    <glyph glyph-name="T" unicode="T" horiz-adv-x="476" 
d="M204 0v643h-190v60h447v-60h-191v-643h-66z" />
    <glyph glyph-name="U" unicode="U" horiz-adv-x="566" 
d="M72 221v482h66v-480c0 -114 57 -172 144 -172s145 58 145 174v478h67v-482c0 -148 -85 -233 -211 -233s-211 85 -211 233z" />
    <glyph glyph-name="V" unicode="V" horiz-adv-x="498" 
d="M213 0l-198 703h71l142 -533c10 -36 20 -89 20 -89h2s10 53 19 89l144 533h70l-198 -703h-72z" />
    <glyph glyph-name="W" unicode="W" horiz-adv-x="715" 
d="M161 0l-136 703h66l100 -545c6 -33 11 -76 11 -76h2s4 42 11 76l115 545h69l103 -545c6 -34 9 -76 9 -76h3s5 43 11 76l100 545h66l-136 -703h-80l-95 494c-9 45 -15 105 -15 105h-3s-7 -59 -16 -104l-106 -495h-79z" />
    <glyph glyph-name="X" unicode="X" horiz-adv-x="456" 
d="M15 0l172 367l-160 336h74l95 -207c16 -37 32 -80 32 -80h2s15 43 31 80l95 207h74l-161 -336l173 -367h-72l-110 242c-16 37 -32 76 -32 76h-2s-13 -39 -30 -77l-109 -241h-72z" />
    <glyph glyph-name="Y" unicode="Y" horiz-adv-x="456" 
d="M195 0v302l-183 401h74l111 -255c15 -37 30 -82 30 -82h2s16 45 32 82l110 255h73l-183 -401v-302h-66z" />
    <glyph glyph-name="Z" unicode="Z" horiz-adv-x="452" 
d="M27 0v50l277 528c19 38 38 65 38 65v2s-14 -2 -40 -2h-262v60h377v-49l-277 -529c-20 -37 -39 -65 -39 -65v-2s15 3 40 3h279v-61h-393z" />
    <glyph glyph-name="bracketleft" unicode="[" horiz-adv-x="233" 
d="M73 -95v825h118v-54h-59v-716h59v-55h-118z" />
    <glyph glyph-name="backslash" unicode="\" horiz-adv-x="322" 
d="M229 -42l-196 784h59l196 -784h-59z" />
    <glyph glyph-name="bracketright" unicode="]" horiz-adv-x="233" 
d="M43 -40h58v716h-58v54h117v-825h-117v55z" />
    <glyph glyph-name="asciicircum" unicode="^" horiz-adv-x="469" 
d="M54 250l153 453h44l153 -453h-61l-114 355l-114 -355h-61z" />
    <glyph glyph-name="underscore" unicode="_" horiz-adv-x="465" 
d="M29 0h407v-58h-407v58z" />
    <glyph glyph-name="grave" unicode="`" horiz-adv-x="386" 
d="M204 752l-70 119h71l56 -119h-57z" />
    <glyph glyph-name="a" unicode="a" horiz-adv-x="411" 
d="M31 140c0 158 151 169 228 169h26v15c0 103 -36 133 -91 133c-37 0 -82 -15 -113 -37l-20 52c35 27 89 43 137 43c102 0 152 -64 152 -193v-322h-60v44c0 25 2 43 2 43h-2c-21 -45 -62 -95 -129 -95c-64 0 -130 45 -130 148zM94 145c0 -56 33 -97 79 -97
c75 0 112 98 112 167v42h-25c-58 0 -166 -5 -166 -112z" />
    <glyph glyph-name="b" unicode="b" horiz-adv-x="469" 
d="M65 0v703h65v-235c0 -24 -3 -41 -3 -41h2c16 44 54 88 130 88c113 0 170 -108 170 -263c0 -160 -65 -264 -176 -264c-60 0 -107 31 -127 83h-2s3 -17 3 -38v-33h-62zM128 251c0 -104 26 -204 116 -204c74 0 117 75 117 204c0 125 -38 205 -115 205
c-73 0 -118 -60 -118 -205z" />
    <glyph glyph-name="c" unicode="c" horiz-adv-x="424" 
d="M39 251c0 155 85 264 218 264c46 0 96 -14 130 -50l-26 -54c-25 27 -61 45 -103 45c-92 0 -152 -84 -152 -205c0 -119 58 -204 153 -204c44 0 87 20 117 53l20 -54c-27 -32 -83 -58 -145 -58c-125 0 -212 106 -212 263z" />
    <glyph glyph-name="d" unicode="d" horiz-adv-x="469" 
d="M41 252c0 159 62 263 175 263c60 0 103 -30 124 -79h2s-3 18 -3 39v228h65v-703h-63v42c0 22 3 38 3 38h-2c-17 -49 -58 -92 -132 -92c-114 0 -169 108 -169 264zM108 251c0 -125 37 -204 115 -204c72 0 118 61 118 204c0 104 -28 205 -115 205c-76 0 -118 -75 -118 -205
z" />
    <glyph glyph-name="e" unicode="e" horiz-adv-x="437" 
d="M40 256c0 157 75 259 192 259c121 0 167 -110 167 -224c0 -13 -1 -26 -2 -42h-290c2 -136 64 -201 142 -201c46 0 91 19 122 52l19 -53c-31 -33 -88 -59 -147 -59c-127 0 -203 108 -203 268zM107 302h226c-1 107 -37 156 -102 156c-67 0 -112 -55 -124 -156z" />
    <glyph glyph-name="f" unicode="f" horiz-adv-x="263" 
d="M79 0v442h-48v57h48v22c0 164 93 187 140 187c9 0 19 0 29 -2v-59c-5 1 -11 2 -17 2c-41 0 -85 -24 -85 -128v-22h95v-57h-95v-442h-67z" />
    <glyph glyph-name="g" unicode="g" horiz-adv-x="463" 
d="M97 -116c27 -19 71 -33 105 -33c74 0 131 45 131 158v43c0 20 1 37 1 37h-1c-22 -54 -58 -86 -119 -86c-108 0 -173 108 -173 257c0 152 63 255 170 255c59 0 106 -30 125 -83h1v17v54h61v-491c0 -160 -94 -222 -192 -222c-45 0 -91 14 -129 38zM226 64
c58 0 109 49 109 197c0 147 -51 193 -115 193c-73 0 -112 -71 -112 -192s44 -198 118 -198z" />
    <glyph glyph-name="h" unicode="h" horiz-adv-x="472" 
d="M65 0v703h65v-251c0 -19 -3 -34 -3 -34h2c17 40 63 97 153 97c91 0 129 -63 129 -163v-352h-66v336c0 58 -9 116 -79 116c-81 0 -136 -82 -136 -163v-289h-65z" />
    <glyph glyph-name="i" unicode="i" horiz-adv-x="195" 
d="M62 617v86h71v-86h-71zM65 0v503h65v-503h-65z" />
    <glyph glyph-name="j" unicode="j" horiz-adv-x="195" 
d="M61 617v86h71v-86h-71zM65 -17v520h65v-522c0 -167 -97 -187 -143 -187c-9 0 -19 1 -25 3v57c4 -1 9 -2 17 -2c29 0 86 16 86 131z" />
    <glyph glyph-name="k" unicode="k" horiz-adv-x="404" 
d="M65 0v703h65v-391h58l114 191h73l-132 -219v-2l145 -282h-74l-126 252h-58v-252h-65z" />
    <glyph glyph-name="l" unicode="l" horiz-adv-x="211" 
d="M65 119v584h66v-569c0 -68 20 -78 43 -78c5 0 9 0 13 1v-59c-6 -1 -12 -2 -23 -2c-38 0 -99 13 -99 123z" />
    <glyph glyph-name="m" unicode="m" horiz-adv-x="716" 
d="M65 0v503h64v-51c0 -18 -3 -31 -3 -31h2c14 32 53 94 144 94c65 0 99 -37 113 -94h3c16 35 57 94 146 94c86 0 121 -62 121 -160v-355h-66v340c0 56 -10 113 -73 113c-71 0 -124 -71 -124 -154v-299h-65v340c0 57 -11 113 -73 113c-72 0 -124 -73 -124 -157v-296h-65z
" />
    <glyph glyph-name="n" unicode="n" horiz-adv-x="472" 
d="M65 0v503h64v-51c0 -18 -3 -31 -3 -31h2c15 35 61 94 153 94c93 0 130 -62 130 -160v-355h-66v341c0 55 -9 112 -79 112c-81 0 -136 -79 -136 -158v-295h-65z" />
    <glyph glyph-name="o" unicode="o" horiz-adv-x="493" 
d="M39 253c0 151 83 262 208 262s207 -112 207 -262s-82 -265 -208 -265c-124 0 -207 114 -207 265zM106 254c0 -119 53 -207 140 -207c88 0 141 88 141 207c0 118 -53 202 -141 202c-87 0 -140 -84 -140 -202z" />
    <glyph glyph-name="p" unicode="p" horiz-adv-x="469" 
d="M65 -200v703h62v-41c0 -22 -3 -38 -3 -38h2c16 46 54 91 132 91c114 0 170 -108 170 -263c0 -160 -64 -264 -175 -264c-55 0 -105 29 -124 80h-2s3 -18 3 -41v-227h-65zM128 251c0 -104 26 -204 115 -204c75 0 118 75 118 204c0 125 -38 205 -115 205
c-73 0 -118 -61 -118 -205z" />
    <glyph glyph-name="q" unicode="q" horiz-adv-x="469" 
d="M211 -12c-114 0 -170 108 -170 264c0 159 63 263 176 263c59 0 106 -31 126 -83h2s-3 18 -3 40v31h62v-703h-65v236c0 24 3 41 3 41h-2c-19 -58 -70 -89 -129 -89zM223 47c73 0 118 60 118 205c0 103 -26 204 -115 204c-75 0 -118 -75 -118 -205c0 -125 38 -204 115 -204
z" />
    <glyph glyph-name="r" unicode="r" horiz-adv-x="292" 
d="M65 0v503h64v-77c0 -22 -2 -39 -2 -39h2c17 66 67 121 122 121c8 0 14 -1 21 -3v-66c-4 1 -12 2 -21 2c-85 0 -121 -129 -121 -223v-218h-65z" />
    <glyph glyph-name="s" unicode="s" horiz-adv-x="348" 
d="M30 42l27 52c20 -18 60 -48 109 -48c50 0 84 31 84 80c0 120 -203 88 -203 251c0 83 54 138 144 138c38 0 79 -12 110 -36l-22 -55c-23 18 -57 33 -89 33c-45 0 -79 -27 -79 -77c0 -121 203 -88 203 -249c0 -77 -48 -143 -148 -143c-51 0 -100 20 -136 54z" />
    <glyph glyph-name="t" unicode="t" horiz-adv-x="261" 
d="M75 183v259h-51v57h52v143h64v-143h95v-57h-95v-253c0 -117 52 -133 85 -133c4 0 12 0 17 2v-60c-3 -1 -14 -2 -25 -2c-48 0 -142 19 -142 187z" />
    <glyph glyph-name="u" unicode="u" horiz-adv-x="468" 
d="M61 148v355h65v-340c0 -56 9 -113 80 -113c75 0 132 77 132 157v296h65v-503h-64v51c0 18 3 32 3 32h-2c-15 -36 -60 -95 -149 -95c-94 0 -130 63 -130 160z" />
    <glyph glyph-name="v" unicode="v" horiz-adv-x="412" 
d="M169 0l-146 503h68l102 -368c7 -26 13 -61 13 -61h1s6 35 12 61l103 368h67l-145 -503h-75z" />
    <glyph glyph-name="w" unicode="w" horiz-adv-x="644" 
d="M149 0l-125 503h67l86 -374c6 -24 11 -54 11 -54h1s5 31 10 54l90 372h66l90 -372c6 -23 10 -54 10 -54h2s5 29 11 54l87 374h65l-125 -503h-74l-88 358c-6 24 -10 55 -10 55h-2s-4 -31 -10 -55l-87 -358h-75z" />
    <glyph glyph-name="x" unicode="x" horiz-adv-x="386" 
d="M18 0l133 265l-122 238h69l81 -166c7 -13 12 -30 12 -30h2s6 17 12 30l83 166h69l-122 -238l133 -265h-68l-94 191c-6 14 -11 29 -11 29h-2s-5 -14 -12 -29l-94 -191h-69z" />
    <glyph glyph-name="y" unicode="y" horiz-adv-x="419" 
d="M40 -132c0 0 21 -19 49 -19c34 0 57 37 71 84l22 70l-164 500h70l109 -366c7 -24 11 -55 11 -55h2s7 32 13 55l105 366h68l-182 -597c-21 -71 -66 -116 -122 -116c-44 0 -73 25 -73 25z" />
    <glyph glyph-name="z" unicode="z" horiz-adv-x="394" 
d="M31 0v45l217 353c14 26 30 47 30 47v2s-12 -2 -37 -2h-201v58h316v-45l-217 -354c-15 -24 -32 -46 -32 -46v-2s13 2 38 2h218v-58h-332z" />
    <glyph glyph-name="braceleft" unicode="{" horiz-adv-x="274" 
d="M101 83v95c0 47 -15 102 -66 115v60c50 13 66 66 66 116v83c0 164 86 178 120 178h16v-55s-3 1 -9 1c-20 0 -68 -11 -68 -126v-99c0 -50 -18 -101 -63 -127v-2c46 -21 63 -78 63 -127v-111c0 -115 48 -125 68 -125h9v-55s-7 -1 -16 -1c-34 0 -120 14 -120 180z" />
    <glyph glyph-name="bar" unicode="|" horiz-adv-x="200" 
d="M71 -157v945h58v-945h-58z" />
    <glyph glyph-name="braceright" unicode="}" horiz-adv-x="274" 
d="M37 -41h9c20 0 68 10 68 125v111c0 55 19 106 62 127v2c-37 20 -62 66 -62 127v99c0 115 -48 126 -68 126c-6 0 -9 -1 -9 -1v55h16c33 0 120 -14 120 -178v-83c0 -48 16 -103 66 -116v-60c-46 -10 -66 -63 -66 -115v-95c0 -166 -87 -180 -120 -180c-10 0 -16 1 -16 1v55z
" />
    <glyph glyph-name="asciitilde" unicode="~" horiz-adv-x="474" 
d="M57 208c0 112 44 157 105 157c90 0 93 -105 150 -105c43 0 52 63 52 101h54c0 -111 -44 -157 -105 -157c-90 0 -93 105 -149 105c-43 0 -52 -62 -52 -101h-55z" />
    <glyph glyph-name="exclamdown" unicode="&#xa1;" horiz-adv-x="199" 
d="M129 319l4 -519h-67l4 519h59zM134 503v-77h-69v77h69z" />
    <glyph glyph-name="cent" unicode="&#xa2;" horiz-adv-x="439" 
d="M202 -13v85c-99 15 -161 134 -161 280c0 145 62 264 161 279v84h51v-84c67 -9 112 -55 139 -122l-58 -26c-21 49 -49 85 -102 85c-79 0 -124 -96 -124 -216c0 -122 44 -217 124 -217c52 0 81 36 102 86l58 -26c-25 -64 -68 -115 -139 -123v-85h-51z" />
    <glyph glyph-name="sterling" unicode="&#xa3;" horiz-adv-x="439" 
d="M35 327v54h50v147c0 113 65 187 164 187c44 0 93 -14 126 -44l-35 -51c-22 17 -57 32 -90 32c-66 0 -96 -59 -96 -126v-145h143v-54h-143v-266h254v-61h-370v61h47v266h-50z" />
    <glyph glyph-name="yen" unicode="&#xa5;" horiz-adv-x="439" 
d="M61 353v51h80l-130 302h74l106 -255c15 -38 28 -83 28 -83h2s14 44 29 83l105 255h74l-130 -302h79v-51h-103l-21 -49v-40h124v-50h-124v-214h-67v214h-126v50h126v40l-22 49h-104z" />
    <glyph glyph-name="section" unicode="&#xa7;" horiz-adv-x="338" 
d="M109 86l-54 433c-2 11 -3 22 -3 34c0 81 42 162 139 162c34 0 70 -9 99 -32l-26 -47c-17 12 -48 21 -72 21c-65 0 -82 -59 -82 -109c0 -11 1 -22 3 -31l52 -431h-56zM48 -30l26 47c18 -12 47 -21 72 -21c65 0 82 59 82 109c0 10 -1 20 -3 31l-52 431h56l54 -433
c2 -11 2 -22 2 -33c0 -81 -41 -163 -138 -163c-34 0 -72 10 -99 32z" />
    <glyph glyph-name="dieresis" unicode="&#xa8;" horiz-adv-x="385" 
d="M227 785v86h55v-86h-55zM103 785v86h55v-86h-55z" />
    <glyph glyph-name="copyright" unicode="&#xa9;" horiz-adv-x="658" 
d="M49 352c0 209 110 363 281 363c174 0 279 -154 279 -363c0 -210 -105 -364 -279 -364c-171 0 -281 154 -281 364zM105 352c0 -182 84 -312 225 -312c144 0 224 130 224 312c0 181 -80 312 -224 312c-141 0 -225 -131 -225 -312zM182 350c0 103 49 206 152 206
c53 0 104 -34 122 -85l-40 -23c-11 32 -46 56 -80 56c-67 0 -97 -77 -97 -154c0 -74 28 -152 96 -152c35 0 69 23 82 57l39 -24c-17 -49 -67 -85 -122 -85c-103 0 -152 101 -152 204z" />
    <glyph glyph-name="ordfeminine" unicode="&#xaa;" horiz-adv-x="337" 
d="M148 382c-43 0 -85 31 -85 95c0 106 103 111 143 111h12v6c0 54 -23 74 -53 74c-24 0 -45 -10 -65 -22l-20 38c19 16 58 29 91 29c66 0 98 -43 98 -123v-202h-47v50h-2c-13 -28 -37 -56 -72 -56zM156 428c38 0 61 54 61 104v14h-10c-31 0 -95 -4 -95 -64
c0 -29 17 -54 44 -54zM62 264v47h210v-47h-210z" />
    <glyph glyph-name="guillemotleft" unicode="&#xab;" horiz-adv-x="428" 
d="M316 77l-126 205l126 206h67l-126 -206l126 -205h-67zM167 77l-126 205l126 206h68l-127 -206l127 -205h-68z" />
    <glyph glyph-name="logicalnot" unicode="&#xac;" horiz-adv-x="492" 
d="M64 342v58h364v-243h-56v185h-308z" />
    <glyph glyph-name="registered" unicode="&#xae;" horiz-adv-x="658" 
d="M49 352c0 209 110 363 281 363c174 0 279 -154 279 -363c0 -210 -105 -364 -279 -364c-171 0 -281 154 -281 364zM105 352c0 -182 84 -312 225 -312c144 0 224 130 224 312c0 181 -80 312 -224 312c-141 0 -225 -131 -225 -312zM233 158v389h115c57 0 94 -46 94 -116
c0 -58 -29 -94 -59 -103v-2s5 -5 11 -22l55 -146h-57l-57 157h-48v-157h-54zM287 360h50c31 0 50 26 50 71c0 44 -19 69 -49 69h-51v-140z" />
    <glyph glyph-name="macron" unicode="&#xaf;" horiz-adv-x="385" 
d="M96 785v55h193v-55h-193z" />
    <glyph glyph-name="degree" unicode="&#xb0;" horiz-adv-x="320" 
d="M160 436c-70 0 -113 62 -113 138c0 77 43 140 113 140c69 0 114 -63 114 -140c0 -76 -45 -138 -114 -138zM160 490c40 0 59 38 59 85c0 46 -19 85 -59 85c-41 0 -59 -39 -59 -85c0 -47 18 -85 59 -85z" />
    <glyph glyph-name="plusminus" unicode="&#xb1;" horiz-adv-x="477" 
d="M209 0v256h-174v57h174v255h59v-255h174v-57h-174v-256h-59zM47 -106h382v-57h-382v57z" />
    <glyph glyph-name="twosuperior" unicode="&#xb2;" 
d="M39 423c-1 10 -3 18 -3 31c0 152 165 171 165 290c0 50 -29 74 -67 74c-31 0 -52 -16 -65 -39l-34 30c15 31 55 59 106 59c63 0 113 -42 113 -120c0 -141 -163 -171 -166 -277h171v-48h-220z" />
    <glyph glyph-name="threesuperior" unicode="&#xb3;" 
d="M128 413c-38 0 -72 14 -98 39l25 42c16 -19 42 -32 69 -32c45 0 82 31 82 88c0 54 -33 84 -92 84h-29l-10 33l89 122c8 11 18 20 18 20v2s-10 -1 -29 -1h-108v48h204v-33l-111 -149c69 -5 121 -45 121 -125c0 -81 -53 -138 -131 -138z" />
    <glyph glyph-name="acute" unicode="&#xb4;" horiz-adv-x="386" 
d="M129 752l55 119h73l-72 -119h-56z" />
    <glyph glyph-name="mu" unicode="&#xb5;" horiz-adv-x="466" 
d="M70 -200v703h65v-340c0 -56 14 -113 85 -113c74 0 127 77 127 157v296h65v-503h-64v51c0 18 3 32 3 32h-2c-18 -43 -58 -95 -139 -95c-31 0 -65 11 -83 38h-2s3 -30 3 -62v-164h-58z" />
    <glyph glyph-name="mu" unicode="&#x3bc;" horiz-adv-x="466" 
d="M70 -200v703h65v-340c0 -56 14 -113 85 -113c74 0 127 77 127 157v296h65v-503h-64v51c0 18 3 32 3 32h-2c-18 -43 -58 -95 -139 -95c-31 0 -65 11 -83 38h-2s3 -30 3 -62v-164h-58z" />
    <glyph glyph-name="paragraph" unicode="&#xb6;" horiz-adv-x="457" 
d="M217 -50v291c-107 0 -184 102 -184 232s77 230 183 230h200v-62h-145v-691h-54zM316 -50v630h54v-630h-54z" />
    <glyph glyph-name="periodcentered" unicode="&#xb7;" horiz-adv-x="186" 
d="M59 248v80h68v-80h-68z" />
    <glyph glyph-name="cedilla" unicode="&#xb8;" horiz-adv-x="385" 
d="M134 -154c5 -2 20 -6 32 -6c19 0 38 9 38 36c0 23 -16 36 -42 36c-7 0 -13 -1 -13 -1l21 109l35 -7v-8l-8 -60c31 -6 57 -31 57 -71c0 -57 -41 -79 -80 -79c-13 0 -27 1 -40 5v46z" />
    <glyph glyph-name="onesuperior" unicode="&#xb9;" 
d="M57 423v48h74v295c0 12 2 24 2 24h-3s-1 -9 -14 -26l-31 -38l-31 31l81 101h47v-387h71v-48h-196z" />
    <glyph glyph-name="ordmasculine" unicode="&#xba;" horiz-adv-x="382" 
d="M190 383c-77 0 -130 72 -130 167c0 93 53 164 129 164c79 0 132 -71 132 -164c0 -95 -53 -167 -131 -167zM190 433c48 0 78 50 78 117c0 66 -30 114 -78 114s-78 -48 -78 -114c0 -67 30 -117 78 -117zM72 264v47h238v-47h-238z" />
    <glyph glyph-name="guillemotright" unicode="&#xbb;" horiz-adv-x="428" 
d="M194 77l126 205l-126 206h67l126 -206l-126 -205h-67zM46 77l126 205l-126 206h66l127 -206l-127 -205h-66z" />
    <glyph glyph-name="onequarter" unicode="&#xbc;" horiz-adv-x="740" 
d="M608 0v116h-164v39l157 280h56v-274h49v-45h-49v-116h-49zM499 161h109v146c0 27 1 56 1 56h-2s-10 -25 -22 -47l-86 -153v-2zM50 268v48h74v295c0 12 2 24 2 24h-3s-1 -9 -14 -26l-31 -38l-31 31l81 101h47v-387h71v-48h-196zM261 0h-54l259 703h53z" />
    <glyph glyph-name="onehalf" unicode="&#xbd;" horiz-adv-x="733" 
d="M470 0c-1 10 -3 18 -3 31c0 152 165 171 165 290c0 50 -29 74 -67 74c-31 0 -52 -16 -65 -39l-34 30c15 31 55 59 106 59c63 0 113 -42 113 -120c0 -141 -163 -171 -166 -277h171v-48h-220zM261 0h-54l259 703h53zM49 268v48h74v295c0 12 2 24 2 24h-3s-1 -9 -14 -26
l-31 -38l-31 31l81 101h47v-387h71v-48h-196z" />
    <glyph glyph-name="threequarters" unicode="&#xbe;" horiz-adv-x="751" 
d="M618 0v116h-164v39l157 280h56v-274h49v-45h-49v-116h-49zM509 161h109v146c0 27 1 56 1 56h-2s-10 -25 -22 -47l-86 -153v-2zM138 258c-38 0 -72 14 -98 39l25 42c16 -19 42 -32 69 -32c45 0 82 31 82 88c0 54 -33 84 -92 84h-29l-10 33l89 122c8 11 18 20 18 20v2
s-10 -1 -29 -1h-108v48h204v-33l-111 -149c69 -5 121 -45 121 -125c0 -81 -53 -138 -131 -138zM272 0h-54l259 703h53z" />
    <glyph glyph-name="questiondown" unicode="&#xbf;" horiz-adv-x="352" 
d="M235 319v-42c0 -160 -133 -178 -133 -303c0 -69 38 -123 105 -123c29 0 63 9 85 28l29 -51c-29 -26 -77 -41 -121 -41c-103 0 -167 74 -167 183c0 158 138 170 138 313v36h64zM237 503v-77h-69v77h69z" />
    <glyph glyph-name="Agrave" unicode="&#xc0;" horiz-adv-x="495" 
d="M16 0l195 703h72l196 -703h-68l-61 224h-205l-61 -224h-68zM158 283h179l-69 255c-9 33 -19 92 -19 92h-3s-10 -58 -19 -92zM218 752l-70 119h71l56 -119h-57z" />
    <glyph glyph-name="Aacute" unicode="&#xc1;" horiz-adv-x="495" 
d="M16 0l195 703h72l196 -703h-68l-61 224h-205l-61 -224h-68zM158 283h179l-69 255c-9 33 -19 92 -19 92h-3s-10 -58 -19 -92zM215 752l55 119h73l-72 -119h-56z" />
    <glyph glyph-name="Acircumflex" unicode="&#xc2;" horiz-adv-x="495" 
d="M16 0l195 703h72l196 -703h-68l-61 224h-205l-61 -224h-68zM158 283h179l-69 255c-9 33 -19 92 -19 92h-3s-10 -58 -19 -92zM146 752l67 119h69l67 -119h-60l-41 81h-2l-40 -81h-60z" />
    <glyph glyph-name="Atilde" unicode="&#xc3;" horiz-adv-x="495" 
d="M16 0l195 703h72l196 -703h-68l-61 224h-205l-61 -224h-68zM158 283h179l-69 255c-9 33 -19 92 -19 92h-3s-10 -58 -19 -92zM121 755c0 77 25 117 74 117c56 0 65 -71 99 -71c24 0 30 42 30 68h49c0 -77 -26 -117 -74 -117c-56 0 -66 71 -100 71c-23 0 -29 -42 -29 -68
h-49z" />
    <glyph glyph-name="Adieresis" unicode="&#xc4;" horiz-adv-x="495" 
d="M16 0l195 703h72l196 -703h-68l-61 224h-205l-61 -224h-68zM158 283h179l-69 255c-9 33 -19 92 -19 92h-3s-10 -58 -19 -92zM282 785v86h55v-86h-55zM158 785v86h55v-86h-55z" />
    <glyph glyph-name="Aring" unicode="&#xc5;" horiz-adv-x="495" 
d="M16 0l195 703h72l196 -703h-68l-61 224h-205l-61 -224h-68zM158 283h179l-69 255c-9 33 -19 92 -19 92h-3s-10 -58 -19 -92zM247 741c-36 0 -64 29 -64 71s28 71 64 71s64 -29 64 -71s-28 -71 -64 -71zM247 778c18 0 25 15 25 34c0 21 -7 36 -25 36
c-17 0 -26 -15 -26 -36c0 -19 8 -34 26 -34z" />
    <glyph glyph-name="AE" unicode="&#xc6;" horiz-adv-x="670" 
d="M13 0l224 703h387v-60h-244v-258h199v-60h-199v-264h258v-61h-325v310h-134l-98 -310h-68zM283 640l-85 -270h115v270h-30z" />
    <glyph glyph-name="Ccedilla" unicode="&#xc7;" horiz-adv-x="545" 
d="M280 -154c5 -2 20 -6 32 -6c19 0 38 9 38 36c0 23 -16 36 -42 36c-7 0 -13 -1 -13 -1l15 78c-167 14 -267 169 -267 366c0 207 111 360 297 360c58 0 122 -18 166 -57l-29 -58c-32 30 -88 52 -138 52c-143 0 -227 -128 -227 -295c0 -168 86 -306 225 -306
c56 0 112 22 155 57l26 -57c-42 -38 -104 -60 -169 -63l-6 -43c31 -6 57 -31 57 -71c0 -57 -41 -79 -80 -79c-13 0 -27 1 -40 5v46z" />
    <glyph glyph-name="Egrave" unicode="&#xc8;" horiz-adv-x="433" 
d="M76 0v703h312v-60h-245v-258h199v-60h-199v-264h258v-61h-325zM214 752l-70 119h71l56 -119h-57z" />
    <glyph glyph-name="Eacute" unicode="&#xc9;" horiz-adv-x="433" 
d="M211 752l55 119h73l-72 -119h-56zM76 0v703h312v-60h-245v-258h199v-60h-199v-264h258v-61h-325z" />
    <glyph glyph-name="Ecircumflex" unicode="&#xca;" horiz-adv-x="433" 
d="M142 752l67 119h69l67 -119h-60l-41 81h-2l-40 -81h-60zM76 0v703h312v-60h-245v-258h199v-60h-199v-264h258v-61h-325z" />
    <glyph glyph-name="Edieresis" unicode="&#xcb;" horiz-adv-x="433" 
d="M278 785v86h55v-86h-55zM154 785v86h55v-86h-55zM76 0v703h312v-60h-245v-258h199v-60h-199v-264h258v-61h-325z" />
    <glyph glyph-name="Igrave" unicode="&#xcc;" horiz-adv-x="219" 
d="M76 0v703h67v-703h-67zM82 752l-70 119h71l56 -119h-57z" />
    <glyph glyph-name="Iacute" unicode="&#xcd;" horiz-adv-x="219" 
d="M76 0v703h67v-703h-67zM79 752l55 119h73l-72 -119h-56z" />
    <glyph glyph-name="Icircumflex" unicode="&#xce;" horiz-adv-x="219" 
d="M76 0v703h67v-703h-67zM10 752l67 119h69l67 -119h-60l-41 81h-2l-40 -81h-60z" />
    <glyph glyph-name="Idieresis" unicode="&#xcf;" horiz-adv-x="219" 
d="M76 0v703h67v-703h-67zM146 785v86h55v-86h-55zM22 785v86h55v-86h-55z" />
    <glyph glyph-name="Eth" unicode="&#xd0;" horiz-adv-x="576" 
d="M31 323v60h47v320h179c166 0 275 -129 275 -351c0 -224 -109 -352 -275 -352h-179v323h-47zM144 61h108c128 0 211 102 211 291c0 187 -84 290 -211 290h-108v-259h125v-60h-125v-262z" />
    <glyph glyph-name="Ntilde" unicode="&#xd1;" horiz-adv-x="583" 
d="M76 0v703h68l261 -497c19 -35 40 -92 40 -92h2s-5 57 -5 94v495h64v-703h-68l-261 500c-18 36 -39 93 -39 93h-2s5 -58 5 -95v-498h-65zM169 755c0 77 25 117 74 117c56 0 65 -71 99 -71c24 0 30 42 30 68h49c0 -77 -26 -117 -74 -117c-56 0 -66 71 -100 71
c-23 0 -29 -42 -29 -68h-49z" />
    <glyph glyph-name="Ograve" unicode="&#xd2;" horiz-adv-x="642" 
d="M43 356c0 221 119 359 278 359s278 -138 278 -359c0 -224 -119 -368 -278 -368s-278 143 -278 368zM112 356c0 -190 90 -304 209 -304c118 0 208 114 208 304c0 186 -90 295 -208 295c-119 0 -209 -109 -209 -295zM292 752l-70 119h71l56 -119h-57z" />
    <glyph glyph-name="Oacute" unicode="&#xd3;" horiz-adv-x="642" 
d="M289 752l55 119h73l-72 -119h-56zM43 356c0 221 119 359 278 359s278 -138 278 -359c0 -224 -119 -368 -278 -368s-278 143 -278 368zM112 356c0 -190 90 -304 209 -304c118 0 208 114 208 304c0 186 -90 295 -208 295c-119 0 -209 -109 -209 -295z" />
    <glyph glyph-name="Ocircumflex" unicode="&#xd4;" horiz-adv-x="642" 
d="M220 752l67 119h69l67 -119h-60l-41 81h-2l-40 -81h-60zM43 356c0 221 119 359 278 359s278 -138 278 -359c0 -224 -119 -368 -278 -368s-278 143 -278 368zM112 356c0 -190 90 -304 209 -304c118 0 208 114 208 304c0 186 -90 295 -208 295c-119 0 -209 -109 -209 -295z
" />
    <glyph glyph-name="Otilde" unicode="&#xd5;" horiz-adv-x="642" 
d="M43 356c0 221 119 359 278 359s278 -138 278 -359c0 -224 -119 -368 -278 -368s-278 143 -278 368zM112 356c0 -190 90 -304 209 -304c118 0 208 114 208 304c0 186 -90 295 -208 295c-119 0 -209 -109 -209 -295zM195 755c0 77 25 117 74 117c56 0 65 -71 99 -71
c24 0 30 42 30 68h49c0 -77 -26 -117 -74 -117c-56 0 -66 71 -100 71c-23 0 -29 -42 -29 -68h-49z" />
    <glyph glyph-name="Odieresis" unicode="&#xd6;" horiz-adv-x="642" 
d="M356 785v86h55v-86h-55zM232 785v86h55v-86h-55zM43 356c0 221 119 359 278 359s278 -138 278 -359c0 -224 -119 -368 -278 -368s-278 143 -278 368zM112 356c0 -190 90 -304 209 -304c118 0 208 114 208 304c0 186 -90 295 -208 295c-119 0 -209 -109 -209 -295z" />
    <glyph glyph-name="multiply" unicode="&#xd7;" horiz-adv-x="477" 
d="M33 35l169 246l-170 248l46 38l160 -235l160 235l46 -38l-171 -248l170 -246l-45 -37l-160 232l-160 -232z" />
    <glyph glyph-name="Oslash" unicode="&#xd8;" horiz-adv-x="642" 
d="M43 357c0 220 118 358 278 358c54 0 103 -15 145 -47l33 61l43 -25l-38 -68c60 -62 95 -158 95 -279c0 -226 -119 -369 -278 -369c-56 0 -106 17 -148 49l-34 -60l-43 24l38 71c-57 63 -91 161 -91 285zM530 357c0 93 -23 167 -60 217l-266 -479c34 -29 72 -43 117 -43
c120 0 209 114 209 305zM113 357c0 -96 21 -169 58 -221l263 475c-33 27 -70 40 -113 40c-121 0 -208 -109 -208 -294z" />
    <glyph glyph-name="Ugrave" unicode="&#xd9;" horiz-adv-x="566" 
d="M72 221v482h66v-480c0 -114 57 -172 144 -172s145 58 145 174v478h67v-482c0 -148 -85 -233 -211 -233s-211 85 -211 233zM253 752l-70 119h71l56 -119h-57z" />
    <glyph glyph-name="Uacute" unicode="&#xda;" horiz-adv-x="566" 
d="M251 752l55 119h73l-72 -119h-56zM72 221v482h66v-480c0 -114 57 -172 144 -172s145 58 145 174v478h67v-482c0 -148 -85 -233 -211 -233s-211 85 -211 233z" />
    <glyph glyph-name="Ucircumflex" unicode="&#xdb;" horiz-adv-x="566" 
d="M181 752l67 119h69l67 -119h-60l-41 81h-2l-40 -81h-60zM72 221v482h66v-480c0 -114 57 -172 144 -172s145 58 145 174v478h67v-482c0 -148 -85 -233 -211 -233s-211 85 -211 233z" />
    <glyph glyph-name="Udieresis" unicode="&#xdc;" horiz-adv-x="566" 
d="M317 785v86h55v-86h-55zM193 785v86h55v-86h-55zM72 221v482h66v-480c0 -114 57 -172 144 -172s145 58 145 174v478h67v-482c0 -148 -85 -233 -211 -233s-211 85 -211 233z" />
    <glyph glyph-name="Yacute" unicode="&#xdd;" horiz-adv-x="456" 
d="M195 0v302l-183 401h74l111 -255c15 -37 30 -82 30 -82h2s16 45 32 82l110 255h73l-183 -401v-302h-66zM195 752l55 119h73l-72 -119h-56z" />
    <glyph glyph-name="Thorn" unicode="&#xde;" horiz-adv-x="472" 
d="M76 0v703h67v-126h104c115 0 200 -82 200 -213c0 -130 -85 -214 -200 -214h-104v-150h-67zM143 210h95c83 0 140 59 140 154c0 96 -58 153 -140 153h-95v-307z" />
    <glyph glyph-name="germandbls" unicode="&#xdf;" horiz-adv-x="460" 
d="M65 0v531c0 126 81 184 162 184c85 0 142 -63 142 -151c0 -97 -80 -137 -80 -192c0 -76 143 -103 143 -239c0 -79 -47 -140 -136 -140c-35 0 -75 11 -104 32v64c23 -19 64 -37 96 -37c48 0 78 30 78 80c0 110 -143 125 -143 236c0 83 82 117 82 196c0 49 -25 92 -78 92
c-51 0 -97 -40 -97 -130v-526h-65z" />
    <glyph glyph-name="agrave" unicode="&#xe0;" horiz-adv-x="411" 
d="M31 140c0 158 151 169 228 169h26v15c0 103 -36 133 -91 133c-37 0 -82 -15 -113 -37l-20 52c35 27 89 43 137 43c102 0 152 -64 152 -193v-322h-60v44c0 25 2 43 2 43h-2c-21 -45 -62 -95 -129 -95c-64 0 -130 45 -130 148zM94 145c0 -56 33 -97 79 -97
c75 0 112 98 112 167v42h-25c-58 0 -166 -5 -166 -112zM173 585l-70 119h71l56 -119h-57z" />
    <glyph glyph-name="aacute" unicode="&#xe1;" horiz-adv-x="411" 
d="M31 140c0 158 151 169 228 169h26v15c0 103 -36 133 -91 133c-37 0 -82 -15 -113 -37l-20 52c35 27 89 43 137 43c102 0 152 -64 152 -193v-322h-60v44c0 25 2 43 2 43h-2c-21 -45 -62 -95 -129 -95c-64 0 -130 45 -130 148zM94 145c0 -56 33 -97 79 -97
c75 0 112 98 112 167v42h-25c-58 0 -166 -5 -166 -112zM170 585l55 119h73l-72 -119h-56z" />
    <glyph glyph-name="acircumflex" unicode="&#xe2;" horiz-adv-x="411" 
d="M31 140c0 158 151 169 228 169h26v15c0 103 -36 133 -91 133c-37 0 -82 -15 -113 -37l-20 52c35 27 89 43 137 43c102 0 152 -64 152 -193v-322h-60v44c0 25 2 43 2 43h-2c-21 -45 -62 -95 -129 -95c-64 0 -130 45 -130 148zM94 145c0 -56 33 -97 79 -97
c75 0 112 98 112 167v42h-25c-58 0 -166 -5 -166 -112zM100 585l67 119h69l67 -119h-60l-41 81h-2l-40 -81h-60z" />
    <glyph glyph-name="atilde" unicode="&#xe3;" horiz-adv-x="411" 
d="M31 140c0 158 151 169 228 169h26v15c0 103 -36 133 -91 133c-37 0 -82 -15 -113 -37l-20 52c35 27 89 43 137 43c102 0 152 -64 152 -193v-322h-60v44c0 25 2 43 2 43h-2c-21 -45 -62 -95 -129 -95c-64 0 -130 45 -130 148zM94 145c0 -56 33 -97 79 -97
c75 0 112 98 112 167v42h-25c-58 0 -166 -5 -166 -112zM76 588c0 77 25 117 74 117c56 0 65 -71 99 -71c24 0 30 42 30 68h49c0 -77 -26 -117 -74 -117c-56 0 -66 71 -100 71c-23 0 -29 -42 -29 -68h-49z" />
    <glyph glyph-name="adieresis" unicode="&#xe4;" horiz-adv-x="411" 
d="M31 140c0 158 151 169 228 169h26v15c0 103 -36 133 -91 133c-37 0 -82 -15 -113 -37l-20 52c35 27 89 43 137 43c102 0 152 -64 152 -193v-322h-60v44c0 25 2 43 2 43h-2c-21 -45 -62 -95 -129 -95c-64 0 -130 45 -130 148zM94 145c0 -56 33 -97 79 -97
c75 0 112 98 112 167v42h-25c-58 0 -166 -5 -166 -112zM236 618v86h55v-86h-55zM112 618v86h55v-86h-55z" />
    <glyph glyph-name="aring" unicode="&#xe5;" horiz-adv-x="411" 
d="M31 140c0 158 151 169 228 169h26v15c0 103 -36 133 -91 133c-37 0 -82 -15 -113 -37l-20 52c35 27 89 43 137 43c102 0 152 -64 152 -193v-322h-60v44c0 25 2 43 2 43h-2c-21 -45 -62 -95 -129 -95c-64 0 -130 45 -130 148zM94 145c0 -56 33 -97 79 -97
c75 0 112 98 112 167v42h-25c-58 0 -166 -5 -166 -112zM201 574c-36 0 -64 29 -64 71s28 71 64 71s64 -29 64 -71s-28 -71 -64 -71zM201 611c18 0 25 15 25 34c0 21 -7 36 -25 36c-17 0 -26 -15 -26 -36c0 -19 8 -34 26 -34z" />
    <glyph glyph-name="ae" unicode="&#xe6;" horiz-adv-x="681" 
d="M30 140c0 151 155 165 230 165h25v19c0 102 -37 133 -90 133c-36 0 -82 -14 -114 -36l-20 51c31 23 82 43 138 43c62 0 105 -28 126 -90h2c33 58 84 90 148 90c121 0 167 -109 167 -221c0 -12 0 -28 -3 -42h-288c3 -140 66 -204 142 -204c46 0 88 20 121 52l19 -53
c-35 -38 -91 -59 -146 -59c-81 0 -139 43 -171 122h-3c-24 -70 -76 -122 -148 -122c-67 0 -135 47 -135 152zM352 305h225c-3 103 -38 154 -103 154c-64 0 -111 -57 -122 -154zM94 145c0 -59 33 -101 79 -101c79 0 112 104 112 172v36h-21c-54 0 -170 -2 -170 -107z" />
    <glyph glyph-name="ccedilla" unicode="&#xe7;" horiz-adv-x="425" 
d="M197 -154c5 -2 20 -6 32 -6c19 0 38 9 38 36c0 23 -16 36 -42 36c-7 0 -13 -1 -13 -1l15 79c-112 12 -188 114 -188 261c0 155 85 264 218 264c46 0 96 -14 130 -50l-26 -54c-25 27 -61 45 -103 45c-92 0 -152 -84 -152 -205c0 -119 58 -204 153 -204c44 0 87 20 117 53
l20 -54c-25 -30 -74 -54 -130 -57l-6 -44c31 -6 57 -31 57 -71c0 -57 -41 -79 -80 -79c-13 0 -27 1 -40 5v46z" />
    <glyph glyph-name="egrave" unicode="&#xe8;" horiz-adv-x="437" 
d="M40 256c0 157 75 259 192 259c121 0 167 -110 167 -224c0 -13 -1 -26 -2 -42h-290c2 -136 64 -201 142 -201c46 0 91 19 122 52l19 -53c-31 -33 -88 -59 -147 -59c-127 0 -203 108 -203 268zM107 302h226c-1 107 -37 156 -102 156c-67 0 -112 -55 -124 -156zM203 585
l-70 119h71l56 -119h-57z" />
    <glyph glyph-name="eacute" unicode="&#xe9;" horiz-adv-x="437" 
d="M199 585l55 119h73l-72 -119h-56zM40 256c0 157 75 259 192 259c121 0 167 -110 167 -224c0 -13 -1 -26 -2 -42h-290c2 -136 64 -201 142 -201c46 0 91 19 122 52l19 -53c-31 -33 -88 -59 -147 -59c-127 0 -203 108 -203 268zM107 302h226c-1 107 -37 156 -102 156
c-67 0 -112 -55 -124 -156z" />
    <glyph glyph-name="ecircumflex" unicode="&#xea;" horiz-adv-x="437" 
d="M130 585l67 119h69l67 -119h-60l-41 81h-2l-40 -81h-60zM40 256c0 157 75 259 192 259c121 0 167 -110 167 -224c0 -13 -1 -26 -2 -42h-290c2 -136 64 -201 142 -201c46 0 91 19 122 52l19 -53c-31 -33 -88 -59 -147 -59c-127 0 -203 108 -203 268zM107 302h226
c-1 107 -37 156 -102 156c-67 0 -112 -55 -124 -156z" />
    <glyph glyph-name="edieresis" unicode="&#xeb;" horiz-adv-x="437" 
d="M266 618v86h55v-86h-55zM142 618v86h55v-86h-55zM40 256c0 157 75 259 192 259c121 0 167 -110 167 -224c0 -13 -1 -26 -2 -42h-290c2 -136 64 -201 142 -201c46 0 91 19 122 52l19 -53c-31 -33 -88 -59 -147 -59c-127 0 -203 108 -203 268zM107 302h226
c-1 107 -37 156 -102 156c-67 0 -112 -55 -124 -156z" />
    <glyph glyph-name="igrave" unicode="&#xec;" horiz-adv-x="195" 
d="M65 0v503h65v-503h-65zM68 585l-70 119h71l56 -119h-57z" />
    <glyph glyph-name="iacute" unicode="&#xed;" horiz-adv-x="195" 
d="M66 585l55 119h73l-72 -119h-56zM65 0v503h65v-503h-65z" />
    <glyph glyph-name="icircumflex" unicode="&#xee;" horiz-adv-x="195" 
d="M-4 585l67 119h69l67 -119h-60l-41 81h-2l-40 -81h-60zM65 0v503h65v-503h-65z" />
    <glyph glyph-name="idieresis" unicode="&#xef;" horiz-adv-x="195" 
d="M132 618v86h55v-86h-55zM8 618v86h55v-86h-55zM65 0v503h65v-503h-65z" />
    <glyph glyph-name="eth" unicode="&#xf0;" horiz-adv-x="455" 
d="M39 230c0 122 66 236 177 236c79 0 113 -54 113 -54l4 2c-20 73 -53 117 -95 155l-150 -83l2 54l107 59c-32 26 -74 44 -110 57l17 56c53 -16 107 -40 155 -78l116 65l-2 -54l-79 -47c71 -67 119 -178 119 -311c0 -156 -60 -299 -189 -299c-121 0 -185 122 -185 242z
M107 230c0 -90 39 -183 115 -183c88 0 124 122 124 207c0 97 -45 156 -115 156c-85 0 -124 -89 -124 -180z" />
    <glyph glyph-name="ntilde" unicode="&#xf1;" horiz-adv-x="472" 
d="M65 0v503h64v-51c0 -18 -3 -31 -3 -31h2c15 35 61 94 153 94c93 0 130 -62 130 -160v-355h-66v341c0 55 -9 112 -79 112c-81 0 -136 -79 -136 -158v-295h-65zM119 588c0 77 25 117 74 117c56 0 65 -71 99 -71c24 0 30 42 30 68h49c0 -77 -26 -117 -74 -117
c-56 0 -66 71 -100 71c-23 0 -29 -42 -29 -68h-49z" />
    <glyph glyph-name="ograve" unicode="&#xf2;" horiz-adv-x="493" 
d="M39 253c0 151 83 262 208 262s207 -112 207 -262s-82 -265 -208 -265c-124 0 -207 114 -207 265zM106 254c0 -119 53 -207 140 -207c88 0 141 88 141 207c0 118 -53 202 -141 202c-87 0 -140 -84 -140 -202zM217 585l-70 119h71l56 -119h-57z" />
    <glyph glyph-name="oacute" unicode="&#xf3;" horiz-adv-x="493" 
d="M214 585l55 119h73l-72 -119h-56zM39 253c0 151 83 262 208 262s207 -112 207 -262s-82 -265 -208 -265c-124 0 -207 114 -207 265zM106 254c0 -119 53 -207 140 -207c88 0 141 88 141 207c0 118 -53 202 -141 202c-87 0 -140 -84 -140 -202z" />
    <glyph glyph-name="ocircumflex" unicode="&#xf4;" horiz-adv-x="493" 
d="M145 585l67 119h69l67 -119h-60l-41 81h-2l-40 -81h-60zM39 253c0 151 83 262 208 262s207 -112 207 -262s-82 -265 -208 -265c-124 0 -207 114 -207 265zM106 254c0 -119 53 -207 140 -207c88 0 141 88 141 207c0 118 -53 202 -141 202c-87 0 -140 -84 -140 -202z" />
    <glyph glyph-name="otilde" unicode="&#xf5;" horiz-adv-x="493" 
d="M39 253c0 151 83 262 208 262s207 -112 207 -262s-82 -265 -208 -265c-124 0 -207 114 -207 265zM106 254c0 -119 53 -207 140 -207c88 0 141 88 141 207c0 118 -53 202 -141 202c-87 0 -140 -84 -140 -202zM120 588c0 77 25 117 74 117c56 0 65 -71 99 -71
c24 0 30 42 30 68h49c0 -77 -26 -117 -74 -117c-56 0 -66 71 -100 71c-23 0 -29 -42 -29 -68h-49z" />
    <glyph glyph-name="odieresis" unicode="&#xf6;" horiz-adv-x="493" 
d="M281 618v86h55v-86h-55zM157 618v86h55v-86h-55zM39 253c0 151 83 262 208 262s207 -112 207 -262s-82 -265 -208 -265c-124 0 -207 114 -207 265zM106 254c0 -119 53 -207 140 -207c88 0 141 88 141 207c0 118 -53 202 -141 202c-87 0 -140 -84 -140 -202z" />
    <glyph glyph-name="divide" unicode="&#xf7;" horiz-adv-x="477" 
d="M205 433v74h66v-74h-66zM46 255v58h384v-58h-384zM205 60v75h66v-75h-66z" />
    <glyph glyph-name="oslash" unicode="&#xf8;" horiz-adv-x="493" 
d="M39 253c0 151 83 262 208 262c39 0 72 -11 101 -30l27 50l42 -27l-31 -56c44 -47 68 -115 68 -199c0 -150 -82 -265 -207 -265c-40 0 -71 8 -101 28l-29 -52l-41 26l31 58c-44 48 -68 120 -68 205zM105 253c0 -59 13 -106 37 -143l177 321c-21 18 -44 26 -72 26
c-89 0 -142 -85 -142 -204zM387 253c0 58 -10 103 -34 140l-178 -323c22 -16 42 -23 72 -23c88 0 140 88 140 206z" />
    <glyph glyph-name="ugrave" unicode="&#xf9;" horiz-adv-x="468" 
d="M61 148v355h65v-340c0 -56 9 -113 80 -113c75 0 132 77 132 157v296h65v-503h-64v51c0 18 3 32 3 32h-2c-15 -36 -60 -95 -149 -95c-94 0 -130 63 -130 160zM202 585l-70 119h71l56 -119h-57z" />
    <glyph glyph-name="uacute" unicode="&#xfa;" horiz-adv-x="468" 
d="M198 585l55 119h73l-72 -119h-56zM61 148v355h65v-340c0 -56 9 -113 80 -113c75 0 132 77 132 157v296h65v-503h-64v51c0 18 3 32 3 32h-2c-15 -36 -60 -95 -149 -95c-94 0 -130 63 -130 160z" />
    <glyph glyph-name="ucircumflex" unicode="&#xfb;" horiz-adv-x="468" 
d="M129 585l67 119h69l67 -119h-60l-41 81h-2l-40 -81h-60zM61 148v355h65v-340c0 -56 9 -113 80 -113c75 0 132 77 132 157v296h65v-503h-64v51c0 18 3 32 3 32h-2c-15 -36 -60 -95 -149 -95c-94 0 -130 63 -130 160z" />
    <glyph glyph-name="udieresis" unicode="&#xfc;" horiz-adv-x="468" 
d="M265 618v86h55v-86h-55zM141 618v86h55v-86h-55zM61 148v355h65v-340c0 -56 9 -113 80 -113c75 0 132 77 132 157v296h65v-503h-64v51c0 18 3 32 3 32h-2c-15 -36 -60 -95 -149 -95c-94 0 -130 63 -130 160z" />
    <glyph glyph-name="yacute" unicode="&#xfd;" horiz-adv-x="419" 
d="M40 -132c0 0 21 -19 49 -19c34 0 57 37 71 84l22 70l-164 500h70l109 -366c7 -24 11 -55 11 -55h2s7 32 13 55l105 366h68l-182 -597c-21 -71 -66 -116 -122 -116c-44 0 -73 25 -73 25zM178 585l55 119h73l-72 -119h-56z" />
    <glyph glyph-name="thorn" unicode="&#xfe;" horiz-adv-x="469" 
d="M65 -200v903h65v-238c0 -22 -3 -39 -3 -39h2c19 56 67 89 129 89c115 0 170 -107 170 -263c0 -161 -65 -264 -175 -264c-56 0 -103 29 -124 81h-2s3 -18 3 -41v-228h-65zM128 251c0 -103 25 -204 115 -204c75 0 119 74 119 204c0 125 -39 204 -116 204
c-73 0 -118 -60 -118 -204z" />
    <glyph glyph-name="ydieresis" unicode="&#xff;" horiz-adv-x="419" 
d="M40 -132c0 0 21 -19 49 -19c34 0 57 37 71 84l22 70l-164 500h70l109 -366c7 -24 11 -55 11 -55h2s7 32 13 55l105 366h68l-182 -597c-21 -71 -66 -116 -122 -116c-44 0 -73 25 -73 25zM244 618v86h55v-86h-55zM120 618v86h55v-86h-55z" />
    <glyph glyph-name="Amacron" unicode="&#x100;" horiz-adv-x="495" 
d="M16 0l195 703h72l196 -703h-68l-61 224h-205l-61 -224h-68zM158 283h179l-69 255c-9 33 -19 92 -19 92h-3s-10 -58 -19 -92zM145 785v55h193v-55h-193z" />
    <glyph glyph-name="amacron" unicode="&#x101;" horiz-adv-x="411" 
d="M31 140c0 158 151 169 228 169h26v15c0 103 -36 133 -91 133c-37 0 -82 -15 -113 -37l-20 52c35 27 89 43 137 43c102 0 152 -64 152 -193v-322h-60v44c0 25 2 43 2 43h-2c-21 -45 -62 -95 -129 -95c-64 0 -130 45 -130 148zM94 145c0 -56 33 -97 79 -97
c75 0 112 98 112 167v42h-25c-58 0 -166 -5 -166 -112zM100 618v55h193v-55h-193z" />
    <glyph glyph-name="Abreve" unicode="&#x102;" horiz-adv-x="495" 
d="M16 0l195 703h72l196 -703h-68l-61 224h-205l-61 -224h-68zM158 283h179l-69 255c-9 33 -19 92 -19 92h-3s-10 -58 -19 -92zM247 749c-50 0 -96 36 -96 108v14h49v-13c0 -43 23 -61 47 -61c23 0 46 18 46 62v12h50v-14c0 -72 -47 -108 -96 -108z" />
    <glyph glyph-name="abreve" unicode="&#x103;" horiz-adv-x="411" 
d="M31 140c0 158 151 169 228 169h26v15c0 103 -36 133 -91 133c-37 0 -82 -15 -113 -37l-20 52c35 27 89 43 137 43c102 0 152 -64 152 -193v-322h-60v44c0 25 2 43 2 43h-2c-21 -45 -62 -95 -129 -95c-64 0 -130 45 -130 148zM94 145c0 -56 33 -97 79 -97
c75 0 112 98 112 167v42h-25c-58 0 -166 -5 -166 -112zM201 582c-50 0 -96 36 -96 108v14h49v-13c0 -43 23 -61 47 -61c23 0 46 18 46 62v12h50v-14c0 -72 -47 -108 -96 -108z" />
    <glyph glyph-name="Aogonek" unicode="&#x104;" horiz-adv-x="495" 
d="M16 0l195 703h72l196 -703c-15 -17 -51 -59 -51 -99c0 -45 42 -51 42 -51l-15 -55s-86 7 -86 92c0 50 35 92 56 113h-14l-61 224h-205l-61 -224h-68zM158 283h179l-69 255c-9 33 -19 92 -19 92h-3s-10 -58 -19 -92z" />
    <glyph glyph-name="aogonek" unicode="&#x105;" horiz-adv-x="411" 
d="M31 140c0 158 151 169 228 169h26v15c0 103 -36 133 -91 133c-37 0 -82 -15 -113 -37l-20 52c35 27 89 43 137 43c102 0 152 -64 152 -193v-321l1 -1c-16 -17 -53 -59 -53 -99c0 -47 44 -52 44 -52l-15 -54s-87 7 -87 92c0 51 36 95 54 113h-4v44c0 25 2 43 2 43h-2
c-21 -45 -62 -95 -129 -95c-64 0 -130 45 -130 148zM94 145c0 -56 33 -97 79 -97c75 0 112 98 112 167v42h-25c-58 0 -166 -5 -166 -112z" />
    <glyph glyph-name="Cacute" unicode="&#x106;" horiz-adv-x="544" 
d="M285 752l55 119h73l-72 -119h-56zM43 355c0 207 111 360 297 360c58 0 122 -18 166 -57l-29 -58c-32 30 -88 52 -138 52c-143 0 -227 -128 -227 -295c0 -168 86 -306 225 -306c56 0 112 22 155 57l26 -57c-45 -40 -113 -63 -183 -63c-182 0 -292 161 -292 367z" />
    <glyph glyph-name="cacute" unicode="&#x107;" horiz-adv-x="424" 
d="M213 585l55 119h73l-72 -119h-56zM39 251c0 155 85 264 218 264c46 0 96 -14 130 -50l-26 -54c-25 27 -61 45 -103 45c-92 0 -152 -84 -152 -205c0 -119 58 -204 153 -204c44 0 87 20 117 53l20 -54c-27 -32 -83 -58 -145 -58c-125 0 -212 106 -212 263z" />
    <glyph glyph-name="Ccircumflex" unicode="&#x108;" horiz-adv-x="544" 
d="M216 752l67 119h69l67 -119h-60l-41 81h-2l-40 -81h-60zM43 355c0 207 111 360 297 360c58 0 122 -18 166 -57l-29 -58c-32 30 -88 52 -138 52c-143 0 -227 -128 -227 -295c0 -168 86 -306 225 -306c56 0 112 22 155 57l26 -57c-45 -40 -113 -63 -183 -63
c-182 0 -292 161 -292 367z" />
    <glyph glyph-name="ccircumflex" unicode="&#x109;" horiz-adv-x="424" 
d="M143 585l67 119h69l67 -119h-60l-41 81h-2l-40 -81h-60zM39 251c0 155 85 264 218 264c46 0 96 -14 130 -50l-26 -54c-25 27 -61 45 -103 45c-92 0 -152 -84 -152 -205c0 -119 58 -204 153 -204c44 0 87 20 117 53l20 -54c-27 -32 -83 -58 -145 -58
c-125 0 -212 106 -212 263z" />
    <glyph glyph-name="Cdotaccent" unicode="&#x10a;" horiz-adv-x="544" 
d="M43 355c0 207 111 360 297 360c58 0 122 -18 166 -57l-29 -58c-32 30 -88 52 -138 52c-143 0 -227 -128 -227 -295c0 -168 86 -306 225 -306c56 0 112 22 155 57l26 -57c-45 -40 -113 -63 -183 -63c-182 0 -292 161 -292 367zM285 786v85h60v-85h-60z" />
    <glyph glyph-name="cdotaccent" unicode="&#x10b;" horiz-adv-x="424" 
d="M39 251c0 155 85 264 218 264c46 0 96 -14 130 -50l-26 -54c-25 27 -61 45 -103 45c-92 0 -152 -84 -152 -205c0 -119 58 -204 153 -204c44 0 87 20 117 53l20 -54c-27 -32 -83 -58 -145 -58c-125 0 -212 106 -212 263zM213 619v85h60v-85h-60z" />
    <glyph glyph-name="Ccaron" unicode="&#x10c;" horiz-adv-x="544" 
d="M283 752l-67 119h60l40 -80h2l41 80h60l-67 -119h-69zM43 355c0 207 111 360 297 360c58 0 122 -18 166 -57l-29 -58c-32 30 -88 52 -138 52c-143 0 -227 -128 -227 -295c0 -168 86 -306 225 -306c56 0 112 22 155 57l26 -57c-45 -40 -113 -63 -183 -63
c-182 0 -292 161 -292 367z" />
    <glyph glyph-name="ccaron" unicode="&#x10d;" horiz-adv-x="424" 
d="M210 585l-67 119h60l40 -80h2l41 80h60l-67 -119h-69zM39 251c0 155 85 264 218 264c46 0 96 -14 130 -50l-26 -54c-25 27 -61 45 -103 45c-92 0 -152 -84 -152 -205c0 -119 58 -204 153 -204c44 0 87 20 117 53l20 -54c-27 -32 -83 -58 -145 -58
c-125 0 -212 106 -212 263z" />
    <glyph glyph-name="Dcaron" unicode="&#x10e;" horiz-adv-x="575" 
d="M226 752l-67 119h60l40 -80h2l41 80h60l-67 -119h-69zM76 0v703h180c165 0 275 -129 275 -351c0 -224 -110 -352 -275 -352h-180zM143 61h107c128 0 211 102 211 291c0 187 -83 290 -211 290h-107v-581z" />
    <glyph glyph-name="dcaron" unicode="&#x10f;" horiz-adv-x="473" 
d="M460 702h58c3 -17 5 -33 5 -49c0 -30 -6 -57 -18 -90h-51c8 30 14 55 14 81c0 17 -2 36 -8 58zM41 252c0 159 62 263 175 263c60 0 103 -30 124 -79h2s-3 18 -3 39v228h65v-703h-63v42c0 22 3 38 3 38h-2c-17 -49 -58 -92 -132 -92c-114 0 -169 108 -169 264zM108 251
c0 -125 37 -204 115 -204c72 0 118 61 118 204c0 104 -28 205 -115 205c-76 0 -118 -75 -118 -205z" />
    <glyph glyph-name="Dcroat" unicode="&#x110;" horiz-adv-x="576" 
d="M31 323v60h47v320h179c166 0 275 -129 275 -351c0 -224 -109 -352 -275 -352h-179v323h-47zM144 61h108c128 0 211 102 211 291c0 187 -84 290 -211 290h-108v-259h125v-60h-125v-262z" />
    <glyph glyph-name="dcroat" unicode="&#x111;" horiz-adv-x="469" 
d="M238 566v51h101v86h65v-86h60v-51h-60v-566h-63v43c0 21 3 38 3 38h-2c-16 -47 -58 -93 -132 -93c-114 0 -169 108 -169 264c0 159 62 263 175 263c56 0 103 -28 124 -79h2s-3 18 -3 39v91h-101zM108 251c0 -125 37 -204 115 -204c72 0 118 61 118 204
c0 104 -28 204 -115 204c-76 0 -118 -74 -118 -204z" />
    <glyph glyph-name="Emacron" unicode="&#x112;" horiz-adv-x="433" 
d="M76 0v703h312v-60h-245v-258h199v-60h-199v-264h258v-61h-325zM141 785v55h193v-55h-193z" />
    <glyph glyph-name="emacron" unicode="&#x113;" horiz-adv-x="437" 
d="M40 256c0 157 75 259 192 259c121 0 167 -110 167 -224c0 -13 -1 -26 -2 -42h-290c2 -136 64 -201 142 -201c46 0 91 19 122 52l19 -53c-31 -33 -88 -59 -147 -59c-127 0 -203 108 -203 268zM107 302h226c-1 107 -37 156 -102 156c-67 0 -112 -55 -124 -156zM129 618v55
h193v-55h-193z" />
    <glyph glyph-name="Ebreve" unicode="&#x114;" horiz-adv-x="433" 
d="M76 0v703h312v-60h-245v-258h199v-60h-199v-264h258v-61h-325zM243 749c-50 0 -96 36 -96 108v14h49v-13c0 -43 23 -61 47 -61c23 0 46 18 46 62v12h50v-14c0 -72 -47 -108 -96 -108z" />
    <glyph glyph-name="ebreve" unicode="&#x115;" horiz-adv-x="437" 
d="M40 256c0 157 75 259 192 259c121 0 167 -110 167 -224c0 -13 -1 -26 -2 -42h-290c2 -136 64 -201 142 -201c46 0 91 19 122 52l19 -53c-31 -33 -88 -59 -147 -59c-127 0 -203 108 -203 268zM107 302h226c-1 107 -37 156 -102 156c-67 0 -112 -55 -124 -156zM231 582
c-50 0 -96 36 -96 108v14h49v-13c0 -43 23 -61 47 -61c23 0 46 18 46 62v12h50v-14c0 -72 -47 -108 -96 -108z" />
    <glyph glyph-name="Edotaccent" unicode="&#x116;" horiz-adv-x="433" 
d="M76 0v703h312v-60h-245v-258h199v-60h-199v-264h258v-61h-325zM212 786v85h60v-85h-60z" />
    <glyph glyph-name="edotaccent" unicode="&#x117;" horiz-adv-x="437" 
d="M40 256c0 157 75 259 192 259c121 0 167 -110 167 -224c0 -13 -1 -26 -2 -42h-290c2 -136 64 -201 142 -201c46 0 91 19 122 52l19 -53c-31 -33 -88 -59 -147 -59c-127 0 -203 108 -203 268zM107 302h226c-1 107 -37 156 -102 156c-67 0 -112 -55 -124 -156zM200 619v85
h60v-85h-60z" />
    <glyph glyph-name="Eogonek" unicode="&#x118;" horiz-adv-x="433" 
d="M76 0v703h312v-60h-245v-258h199v-60h-199v-264h258v-61c-16 -17 -53 -59 -53 -99c0 -47 44 -52 44 -52l-15 -54s-86 7 -86 92c0 51 35 95 53 113h-268z" />
    <glyph glyph-name="eogonek" unicode="&#x119;" horiz-adv-x="437" 
d="M243 -12c-127 0 -203 108 -203 268c0 157 75 259 192 259c121 0 167 -110 167 -224c0 -27 -2 -42 -2 -42h-290c2 -136 64 -201 142 -201c46 0 90 20 122 52l19 -53c-28 -29 -101 -77 -101 -146c0 -48 44 -52 44 -52l-15 -54s-87 7 -87 93c0 42 26 79 46 104
c-10 -4 -22 -4 -34 -4zM107 302h226c-1 107 -37 157 -102 157c-67 0 -112 -56 -124 -157z" />
    <glyph glyph-name="Ecaron" unicode="&#x11a;" horiz-adv-x="433" 
d="M209 752l-67 119h60l40 -80h2l41 80h60l-67 -119h-69zM76 0v703h312v-60h-245v-258h199v-60h-199v-264h258v-61h-325z" />
    <glyph glyph-name="ecaron" unicode="&#x11b;" horiz-adv-x="437" 
d="M197 585l-67 119h60l40 -80h2l41 80h60l-67 -119h-69zM40 256c0 157 75 259 192 259c121 0 167 -110 167 -224c0 -13 -1 -26 -2 -42h-290c2 -136 64 -201 142 -201c46 0 91 19 122 52l19 -53c-31 -33 -88 -59 -147 -59c-127 0 -203 108 -203 268zM107 302h226
c-1 107 -37 156 -102 156c-67 0 -112 -55 -124 -156z" />
    <glyph glyph-name="Gcircumflex" unicode="&#x11c;" horiz-adv-x="594" 
d="M230 752l67 119h69l67 -119h-60l-41 81h-2l-40 -81h-60zM43 352c0 223 120 363 296 363c63 0 129 -21 177 -60l-29 -57c-36 33 -92 54 -150 54c-135 0 -225 -114 -225 -298c0 -189 98 -302 219 -302c61 0 120 25 152 74v149h-90v61h152v-336h-57v31c0 13 2 28 2 28h-2
c-30 -38 -93 -71 -165 -71c-149 0 -280 136 -280 364z" />
    <glyph glyph-name="gcircumflex" unicode="&#x11d;" horiz-adv-x="463" 
d="M120 585l67 119h69l67 -119h-60l-41 81h-2l-40 -81h-60zM97 -116c27 -19 71 -33 105 -33c74 0 131 45 131 158v43c0 20 1 37 1 37h-1c-22 -54 -58 -86 -119 -86c-108 0 -173 108 -173 257c0 152 63 255 170 255c59 0 106 -30 125 -83h1v17v54h61v-491
c0 -160 -94 -222 -192 -222c-45 0 -91 14 -129 38zM226 64c58 0 109 49 109 197c0 147 -51 193 -115 193c-73 0 -112 -71 -112 -192s44 -198 118 -198z" />
    <glyph glyph-name="Gbreve" unicode="&#x11e;" horiz-adv-x="594" 
d="M43 352c0 223 120 363 296 363c63 0 129 -21 177 -60l-29 -57c-36 33 -92 54 -150 54c-135 0 -225 -114 -225 -298c0 -189 98 -302 219 -302c61 0 120 25 152 74v149h-90v61h152v-336h-57v31c0 13 2 28 2 28h-2c-30 -38 -93 -71 -165 -71c-149 0 -280 136 -280 364z
M331 749c-50 0 -96 36 -96 108v14h49v-13c0 -43 23 -61 47 -61c23 0 46 18 46 62v12h50v-14c0 -72 -47 -108 -96 -108z" />
    <glyph glyph-name="gbreve" unicode="&#x11f;" horiz-adv-x="463" 
d="M97 -116c27 -19 71 -33 105 -33c74 0 131 45 131 158v43c0 20 1 37 1 37h-1c-22 -54 -58 -86 -119 -86c-108 0 -173 108 -173 257c0 152 63 255 170 255c59 0 106 -30 125 -83h1v17v54h61v-491c0 -160 -94 -222 -192 -222c-45 0 -91 14 -129 38zM226 64
c58 0 109 49 109 197c0 147 -51 193 -115 193c-73 0 -112 -71 -112 -192s44 -198 118 -198zM222 582c-50 0 -96 36 -96 108v14h49v-13c0 -43 23 -61 47 -61c23 0 46 18 46 62v12h50v-14c0 -72 -47 -108 -96 -108z" />
    <glyph glyph-name="Gdotaccent" unicode="&#x120;" horiz-adv-x="594" 
d="M43 352c0 223 120 363 296 363c63 0 129 -21 177 -60l-29 -57c-36 33 -92 54 -150 54c-135 0 -225 -114 -225 -298c0 -189 98 -302 219 -302c61 0 120 25 152 74v149h-90v61h152v-336h-57v31c0 13 2 28 2 28h-2c-30 -38 -93 -71 -165 -71c-149 0 -280 136 -280 364z
M299 786v85h60v-85h-60z" />
    <glyph glyph-name="gdotaccent" unicode="&#x121;" horiz-adv-x="463" 
d="M97 -116c27 -19 71 -33 105 -33c74 0 131 45 131 158v43c0 20 1 37 1 37h-1c-22 -54 -58 -86 -119 -86c-108 0 -173 108 -173 257c0 152 63 255 170 255c59 0 106 -30 125 -83h1v17v54h61v-491c0 -160 -94 -222 -192 -222c-45 0 -91 14 -129 38zM226 64
c58 0 109 49 109 197c0 147 -51 193 -115 193c-73 0 -112 -71 -112 -192s44 -198 118 -198zM190 619v85h60v-85h-60z" />
    <glyph glyph-name="Gcommaaccent" unicode="&#x122;" horiz-adv-x="594" 
d="M296 -63h58c3 -17 5 -33 5 -49c0 -30 -6 -57 -18 -90h-51c8 30 14 55 14 81c0 17 -2 36 -8 58zM43 352c0 223 120 363 296 363c63 0 129 -21 177 -60l-29 -57c-36 33 -92 54 -150 54c-135 0 -225 -114 -225 -298c0 -189 98 -302 219 -302c61 0 120 25 152 74v149h-90v61
h152v-336h-57v31c0 13 2 28 2 28h-2c-30 -38 -93 -71 -165 -71c-149 0 -280 136 -280 364z" />
    <glyph glyph-name="gcommaaccent" unicode="&#x123;" horiz-adv-x="463" 
d="M265 564h-58c-3 17 -5 33 -5 49c0 30 6 57 18 90h51c-8 -30 -14 -55 -14 -81c0 -17 2 -36 8 -58zM97 -116c27 -19 71 -33 105 -33c74 0 131 45 131 158v43c0 20 1 37 1 37h-1c-22 -54 -58 -86 -119 -86c-108 0 -173 108 -173 257c0 152 63 255 170 255
c59 0 106 -30 125 -83h1v17v54h61v-491c0 -160 -94 -222 -192 -222c-45 0 -91 14 -129 38zM226 64c58 0 109 49 109 197c0 147 -51 193 -115 193c-73 0 -112 -71 -112 -192s44 -198 118 -198z" />
    <glyph glyph-name="Hcircumflex" unicode="&#x124;" horiz-adv-x="581" 
d="M196 752l67 119h69l67 -119h-60l-41 81h-2l-40 -81h-60zM76 0v703h67v-321h296v321h66v-703h-66v322h-296v-322h-67z" />
    <glyph glyph-name="hcircumflex" unicode="&#x125;" horiz-adv-x="472" 
d="M-5 752l67 119h69l67 -119h-60l-41 81h-2l-40 -81h-60zM65 0v703h65v-251c0 -19 -3 -34 -3 -34h2c17 40 63 97 153 97c91 0 129 -63 129 -163v-352h-66v336c0 58 -9 116 -79 116c-81 0 -136 -82 -136 -163v-289h-65z" />
    <glyph glyph-name="Hbar" unicode="&#x126;" horiz-adv-x="586" 
d="M79 0v512h-55v54h55v137h66v-137h296v137h67v-137h53v-54h-53v-512h-67v319h-296v-319h-66zM145 379h296v133h-296v-133z" />
    <glyph glyph-name="hbar" unicode="&#x127;" horiz-adv-x="472" 
d="M8 567v50h57v86h65v-86h104v-50h-104v-115c0 -20 -3 -34 -3 -34h2c17 40 63 97 153 97c91 0 129 -63 129 -163v-352h-66v336c0 58 -9 116 -79 116c-80 0 -136 -81 -136 -164v-288h-65v567h-57z" />
    <glyph glyph-name="Itilde" unicode="&#x128;" horiz-adv-x="219" 
d="M76 0v703h67v-703h-67zM-15 755c0 77 25 117 74 117c56 0 65 -71 99 -71c24 0 30 42 30 68h49c0 -77 -26 -117 -74 -117c-56 0 -66 71 -100 71c-23 0 -29 -42 -29 -68h-49z" />
    <glyph glyph-name="itilde" unicode="&#x129;" horiz-adv-x="195" 
d="M65 0v503h65v-503h-65zM-28 588c0 77 25 117 74 117c56 0 65 -71 99 -71c24 0 30 42 30 68h49c0 -77 -26 -117 -74 -117c-56 0 -66 71 -100 71c-23 0 -29 -42 -29 -68h-49z" />
    <glyph glyph-name="Imacron" unicode="&#x12a;" horiz-adv-x="219" 
d="M76 0v703h67v-703h-67zM9 785v55h193v-55h-193z" />
    <glyph glyph-name="imacron" unicode="&#x12b;" horiz-adv-x="195" 
d="M65 0v503h65v-503h-65zM-4 618v55h193v-55h-193z" />
    <glyph glyph-name="Ibreve" unicode="&#x12c;" horiz-adv-x="219" 
d="M76 0v703h67v-703h-67zM111 749c-50 0 -96 36 -96 108v14h49v-13c0 -43 23 -61 47 -61c23 0 46 18 46 62v12h50v-14c0 -72 -47 -108 -96 -108z" />
    <glyph glyph-name="ibreve" unicode="&#x12d;" horiz-adv-x="195" 
d="M65 0v503h65v-503h-65zM98 582c-50 0 -96 36 -96 108v14h49v-13c0 -43 23 -61 47 -61c23 0 46 18 46 62v12h50v-14c0 -72 -47 -108 -96 -108z" />
    <glyph glyph-name="Iogonek" unicode="&#x12e;" horiz-adv-x="219" 
d="M76 0v703h67v-703c-16 -17 -53 -59 -53 -99c0 -47 45 -52 45 -52l-16 -54s-86 7 -86 92c0 51 36 95 54 113h-11z" />
    <glyph glyph-name="iogonek" unicode="&#x12f;" horiz-adv-x="195" 
d="M65 0v503h65v-503c-16 -17 -53 -59 -53 -99c0 -47 45 -52 45 -52l-16 -54s-86 7 -86 92c0 51 36 94 54 113h-9zM62 617v86h71v-86h-71z" />
    <glyph glyph-name="Idotaccent" unicode="&#x130;" horiz-adv-x="219" 
d="M76 0v703h67v-703h-67zM80 786v85h60v-85h-60z" />
    <glyph glyph-name="dotlessi" unicode="&#x131;" horiz-adv-x="195" 
d="M65 0v503h65v-503h-65z" />
    <glyph glyph-name="IJ" unicode="&#x132;" horiz-adv-x="464" 
d="M217 -5v64c46 0 109 21 109 165v479h66v-475c0 -195 -95 -233 -175 -233zM76 0v703h67v-703h-67z" />
    <glyph glyph-name="ij" unicode="&#x133;" horiz-adv-x="385" 
d="M62 617v86h71v-86h-71zM65 0v503h65v-503h-65zM250 617v86h71v-86h-71zM254 -17v520h65v-522c0 -167 -97 -187 -143 -187c-9 0 -19 1 -25 3v57c4 -1 9 -2 17 -2c29 0 86 16 86 131z" />
    <glyph glyph-name="Jcircumflex" unicode="&#x134;" horiz-adv-x="413" 
d="M153 752l67 119h69l67 -119h-60l-41 81h-2l-40 -81h-60zM25 192v33h67v-33c0 -118 49 -141 92 -141c45 0 90 25 90 141v451h-131v60h198v-511c0 -157 -80 -204 -157 -204c-79 0 -159 48 -159 204z" />
    <glyph glyph-name="jcircumflex" unicode="&#x135;" horiz-adv-x="195" 
d="M-6 584l66 119h70l67 -119h-60l-41 81h-2l-41 -81h-59zM65 -17v520h65v-522c0 -167 -97 -187 -143 -187c-8 0 -16 1 -25 3v57c3 -1 8 -2 17 -2c29 0 86 16 86 131z" />
    <glyph glyph-name="Kcommaaccent" unicode="&#x136;" horiz-adv-x="468" 
d="M224 -63h58c3 -17 5 -33 5 -49c0 -30 -6 -57 -18 -90h-51c8 30 14 55 14 81c0 17 -2 36 -8 58zM76 0v703h67v-304h81l147 304h73l-161 -332v-2l170 -369h-74l-155 336h-81v-336h-67z" />
    <glyph glyph-name="kcommaaccent" unicode="&#x137;" horiz-adv-x="404" 
d="M182 -63h58c3 -17 5 -33 5 -49c0 -30 -6 -57 -18 -90h-51c8 30 14 55 14 81c0 17 -2 36 -8 58zM65 0v703h65v-391h58l114 191h73l-132 -219v-2l145 -282h-74l-126 252h-58v-252h-65z" />
    <glyph glyph-name="kgreenlandic" unicode="&#x138;" horiz-adv-x="403" 
d="M65 0v503h65v-206h59l123 206h71l-140 -233v-2l136 -268h-72l-118 238h-59v-238h-65z" />
    <glyph glyph-name="Lacute" unicode="&#x139;" horiz-adv-x="405" 
d="M79 752l55 119h73l-72 -119h-56zM76 0v703h67v-642h247v-61h-314z" />
    <glyph glyph-name="lacute" unicode="&#x13a;" horiz-adv-x="211" 
d="M67 752l55 119h73l-72 -119h-56zM65 119v584h66v-569c0 -68 20 -78 43 -78c5 0 9 0 13 1v-59c-6 -1 -12 -2 -23 -2c-38 0 -99 13 -99 123z" />
    <glyph glyph-name="Lcommaaccent" unicode="&#x13b;" horiz-adv-x="405" 
d="M204 -63h58c3 -17 5 -33 5 -49c0 -30 -6 -57 -18 -90h-51c8 30 14 55 14 81c0 17 -2 36 -8 58zM76 0v703h67v-642h247v-61h-314z" />
    <glyph glyph-name="lcommaaccent" unicode="&#x13c;" horiz-adv-x="211" 
d="M101 -63h58c3 -17 5 -33 5 -49c0 -30 -6 -57 -18 -90h-51c8 30 14 55 14 81c0 17 -2 36 -8 58zM65 119v584h66v-569c0 -68 20 -78 43 -78c5 0 9 0 13 1v-59c-6 -1 -12 -2 -23 -2c-38 0 -99 13 -99 123z" />
    <glyph glyph-name="Lcaron" unicode="&#x13d;" horiz-adv-x="405" 
d="M211 702h58c3 -17 5 -33 5 -49c0 -30 -6 -57 -18 -90h-51c8 30 14 55 14 81c0 17 -2 36 -8 58zM76 0v703h67v-642h247v-61h-314z" />
    <glyph glyph-name="lcaron" unicode="&#x13e;" horiz-adv-x="215" 
d="M183 702h58c3 -17 5 -33 5 -49c0 -30 -6 -57 -18 -90h-51c8 30 14 55 14 81c0 17 -2 36 -8 58zM65 119v584h66v-569c0 -68 20 -78 43 -78c5 0 9 0 13 1v-59c-6 -1 -12 -2 -23 -2c-38 0 -99 13 -99 123z" />
    <glyph glyph-name="Ldot" unicode="&#x13f;" horiz-adv-x="407" 
d="M76 0v703h67v-642h247v-61h-314zM237 331v80h68v-80h-68z" />
    <glyph glyph-name="ldot" unicode="&#x140;" horiz-adv-x="262" 
d="M65 119v584h66v-569c0 -68 20 -78 43 -78c5 0 9 0 13 1v-59c-6 -1 -12 -2 -23 -2c-38 0 -99 13 -99 123zM192 331v80h68v-80h-68z" />
    <glyph glyph-name="Lslash" unicode="&#x141;" horiz-adv-x="407" 
d="M29 301v70l49 35v297h67v-251l87 62v-71l-87 -62v-320h246v-61h-313v335z" />
    <glyph glyph-name="lslash" unicode="&#x142;" horiz-adv-x="225" 
d="M14 305v70l61 45v283h65v-237l67 48v-71l-67 -49v-260c0 -66 21 -77 42 -77c8 0 14 1 14 1v-60s-11 -2 -23 -2c-37 0 -98 13 -98 123v229z" />
    <glyph glyph-name="Nacute" unicode="&#x143;" horiz-adv-x="583" 
d="M263 752l55 119h73l-72 -119h-56zM76 0v703h68l261 -497c19 -35 40 -92 40 -92h2s-5 57 -5 94v495h64v-703h-68l-261 500c-18 36 -39 93 -39 93h-2s5 -58 5 -95v-498h-65z" />
    <glyph glyph-name="nacute" unicode="&#x144;" horiz-adv-x="472" 
d="M213 585l55 119h73l-72 -119h-56zM65 0v503h64v-51c0 -18 -3 -31 -3 -31h2c15 35 61 94 153 94c93 0 130 -62 130 -160v-355h-66v341c0 55 -9 112 -79 112c-81 0 -136 -79 -136 -158v-295h-65z" />
    <glyph glyph-name="Ncommaaccent" unicode="&#x145;" horiz-adv-x="583" 
d="M264 -63h58c3 -17 5 -33 5 -49c0 -30 -6 -57 -18 -90h-51c8 30 14 55 14 81c0 17 -2 36 -8 58zM76 0v703h68l261 -497c19 -35 40 -92 40 -92h2s-5 57 -5 94v495h64v-703h-68l-261 500c-18 36 -39 93 -39 93h-2s5 -58 5 -95v-498h-65z" />
    <glyph glyph-name="ncommaaccent" unicode="&#x146;" horiz-adv-x="472" 
d="M207 -63h58c3 -17 5 -33 5 -49c0 -30 -6 -57 -18 -90h-51c8 30 14 55 14 81c0 17 -2 36 -8 58zM65 0v503h64v-51c0 -18 -3 -31 -3 -31h2c15 35 61 94 153 94c93 0 130 -62 130 -160v-355h-66v341c0 55 -9 112 -79 112c-81 0 -136 -79 -136 -158v-295h-65z" />
    <glyph glyph-name="Ncaron" unicode="&#x147;" horiz-adv-x="583" 
d="M261 752l-67 119h60l40 -80h2l41 80h60l-67 -119h-69zM76 0v703h68l261 -497c19 -35 40 -92 40 -92h2s-5 57 -5 94v495h64v-703h-68l-261 500c-18 36 -39 93 -39 93h-2s5 -58 5 -95v-498h-65z" />
    <glyph glyph-name="ncaron" unicode="&#x148;" horiz-adv-x="472" 
d="M210 585l-67 119h60l40 -80h2l41 80h60l-67 -119h-69zM65 0v503h64v-51c0 -18 -3 -31 -3 -31h2c15 35 61 94 153 94c93 0 130 -62 130 -160v-355h-66v341c0 55 -9 112 -79 112c-81 0 -136 -79 -136 -158v-295h-65z" />
    <glyph glyph-name="napostrophe" unicode="&#x149;" horiz-adv-x="472" 
d="M17 702h58c3 -17 5 -33 5 -49c0 -30 -6 -57 -18 -90h-51c8 30 14 55 14 81c0 17 -2 36 -8 58zM65 0v503h64v-51c0 -18 -3 -31 -3 -31h2c15 35 61 94 153 94c93 0 130 -62 130 -160v-355h-66v341c0 55 -9 112 -79 112c-81 0 -136 -79 -136 -158v-295h-65z" />
    <glyph glyph-name="Eng" unicode="&#x14a;" horiz-adv-x="583" 
d="M76 0v703h69l259 -493c18 -35 39 -90 39 -90h2s-4 55 -4 92v491h65v-689c0 -166 -91 -219 -171 -219v63c43 0 105 33 104 148l-261 494c-17 36 -38 91 -38 91h-2s4 -56 4 -93v-498h-66z" />
    <glyph glyph-name="eng" unicode="&#x14b;" horiz-adv-x="472" 
d="M65 0v503h64v-51c0 -18 -3 -32 -3 -32h2c15 36 61 95 153 95c93 0 130 -62 130 -160v-378c0 -167 -97 -187 -144 -187c-14 0 -24 3 -24 3v58s6 -2 17 -2c29 0 85 16 85 130v362c0 55 -9 112 -79 112c-80 0 -136 -78 -136 -158v-295h-65z" />
    <glyph glyph-name="Omacron" unicode="&#x14c;" horiz-adv-x="642" 
d="M219 785v55h193v-55h-193zM43 356c0 221 119 359 278 359s278 -138 278 -359c0 -224 -119 -368 -278 -368s-278 143 -278 368zM112 356c0 -190 90 -304 209 -304c118 0 208 114 208 304c0 186 -90 295 -208 295c-119 0 -209 -109 -209 -295z" />
    <glyph glyph-name="omacron" unicode="&#x14d;" horiz-adv-x="493" 
d="M144 618v55h193v-55h-193zM39 253c0 151 83 262 208 262s207 -112 207 -262s-82 -265 -208 -265c-124 0 -207 114 -207 265zM106 254c0 -119 53 -207 140 -207c88 0 141 88 141 207c0 118 -53 202 -141 202c-87 0 -140 -84 -140 -202z" />
    <glyph glyph-name="Obreve" unicode="&#x14e;" horiz-adv-x="642" 
d="M43 356c0 221 119 359 278 359s278 -138 278 -359c0 -224 -119 -368 -278 -368s-278 143 -278 368zM112 356c0 -190 90 -304 209 -304c118 0 208 114 208 304c0 186 -90 295 -208 295c-119 0 -209 -109 -209 -295zM321 749c-50 0 -96 36 -96 108v14h49v-13
c0 -43 23 -61 47 -61c23 0 46 18 46 62v12h50v-14c0 -72 -47 -108 -96 -108z" />
    <glyph glyph-name="obreve" unicode="&#x14f;" horiz-adv-x="493" 
d="M39 253c0 151 83 262 208 262s207 -112 207 -262s-82 -265 -208 -265c-124 0 -207 114 -207 265zM106 254c0 -119 53 -207 140 -207c88 0 141 88 141 207c0 118 -53 202 -141 202c-87 0 -140 -84 -140 -202zM246 582c-50 0 -96 36 -96 108v14h49v-13c0 -43 23 -61 47 -61
c23 0 46 18 46 62v12h50v-14c0 -72 -47 -108 -96 -108z" />
    <glyph glyph-name="Ohungarumlaut" unicode="&#x150;" horiz-adv-x="642" 
d="M347 752l56 119h70l-71 -119h-55zM236 752l51 119h61l-53 -119h-59zM43 356c0 221 119 359 278 359s278 -138 278 -359c0 -224 -119 -368 -278 -368s-278 143 -278 368zM112 356c0 -190 90 -304 209 -304c118 0 208 114 208 304c0 186 -90 295 -208 295
c-119 0 -209 -109 -209 -295z" />
    <glyph glyph-name="ohungarumlaut" unicode="&#x151;" horiz-adv-x="493" 
d="M272 585l56 119h70l-71 -119h-55zM161 585l51 119h61l-53 -119h-59zM39 253c0 151 83 262 208 262s207 -112 207 -262s-82 -265 -208 -265c-124 0 -207 114 -207 265zM106 254c0 -119 53 -207 140 -207c88 0 141 88 141 207c0 118 -53 202 -141 202
c-87 0 -140 -84 -140 -202z" />
    <glyph glyph-name="OE" unicode="&#x152;" horiz-adv-x="731" 
d="M43 357c0 220 119 358 277 358c26 0 50 -3 74 -12h292v-60h-245v-258h200v-60h-200v-264h258v-61h-306c-24 -8 -48 -12 -73 -12c-158 0 -277 144 -277 369zM112 357c0 -192 91 -308 208 -308c17 0 34 2 55 8v589c-21 6 -38 8 -55 8c-117 0 -208 -110 -208 -297z" />
    <glyph glyph-name="oe" unicode="&#x153;" horiz-adv-x="787" 
d="M39 253c0 150 82 262 208 262c78 0 138 -46 171 -122h2c30 79 89 122 162 122c119 0 166 -109 166 -224c0 -26 -2 -42 -2 -42h-290c2 -137 66 -201 146 -201c45 0 87 19 118 52l19 -53c-32 -37 -90 -59 -145 -59c-78 0 -142 45 -174 127h-2c-32 -78 -93 -127 -171 -127
c-126 0 -208 116 -208 265zM457 302h226c-2 107 -38 157 -102 157c-67 0 -113 -56 -124 -157zM106 254c0 -117 52 -207 141 -207c88 0 140 90 140 206c0 118 -52 203 -140 203c-89 0 -141 -85 -141 -202z" />
    <glyph glyph-name="Racute" unicode="&#x154;" horiz-adv-x="489" 
d="M209 752l55 119h73l-72 -119h-56zM76 0v703h179c25 0 63 -6 93 -23c53 -28 90 -91 90 -175c0 -105 -61 -165 -110 -189v-2s8 -14 15 -31l121 -283h-74l-121 296h-126v-296h-67zM143 357h108c58 0 119 54 119 146c0 53 -19 97 -52 118c-19 13 -49 21 -71 21h-104v-285z
" />
    <glyph glyph-name="racute" unicode="&#x155;" horiz-adv-x="292" 
d="M136 585l55 119h73l-72 -119h-56zM65 0v503h64v-77c0 -22 -2 -39 -2 -39h2c17 66 67 121 122 121c8 0 14 -1 21 -3v-66c-4 1 -12 2 -21 2c-85 0 -121 -129 -121 -223v-218h-65z" />
    <glyph glyph-name="Rcommaaccent" unicode="&#x156;" horiz-adv-x="489" 
d="M231 -63h58c3 -17 5 -33 5 -49c0 -30 -6 -57 -18 -90h-51c8 30 14 55 14 81c0 17 -2 36 -8 58zM76 0v703h179c25 0 63 -6 93 -23c53 -28 90 -91 90 -175c0 -105 -61 -165 -110 -189v-2s8 -14 15 -31l121 -283h-74l-121 296h-126v-296h-67zM143 357h108
c58 0 119 54 119 146c0 53 -19 97 -52 118c-19 13 -49 21 -71 21h-104v-285z" />
    <glyph glyph-name="rcommaaccent" unicode="&#x157;" horiz-adv-x="292" 
d="M68 -63h58c3 -17 5 -33 5 -49c0 -30 -6 -57 -18 -90h-51c8 30 14 55 14 81c0 17 -2 36 -8 58zM65 0v503h64v-77c0 -22 -2 -39 -2 -39h2c17 66 67 121 122 121c8 0 14 -1 21 -3v-66c-4 1 -12 2 -21 2c-85 0 -121 -129 -121 -223v-218h-65z" />
    <glyph glyph-name="Rcaron" unicode="&#x158;" horiz-adv-x="489" 
d="M206 752l-67 119h60l40 -80h2l41 80h60l-67 -119h-69zM76 0v703h179c25 0 63 -6 93 -23c53 -28 90 -91 90 -175c0 -105 -61 -165 -110 -189v-2s8 -14 15 -31l121 -283h-74l-121 296h-126v-296h-67zM143 357h108c58 0 119 54 119 146c0 53 -19 97 -52 118
c-19 13 -49 21 -71 21h-104v-285z" />
    <glyph glyph-name="rcaron" unicode="&#x159;" horiz-adv-x="292" 
d="M135 585l-67 119h60l40 -80h2l41 80h60l-67 -119h-69zM65 0v503h64v-77c0 -22 -2 -39 -2 -39h2c17 66 67 121 122 121c8 0 14 -1 21 -3v-66c-4 1 -12 2 -21 2c-85 0 -121 -129 -121 -223v-218h-65z" />
    <glyph glyph-name="Sacute" unicode="&#x15a;" horiz-adv-x="420" 
d="M195 752l55 119h73l-72 -119h-56zM32 53l33 57c34 -34 81 -59 132 -59c68 0 115 47 115 122c0 170 -265 152 -265 358c0 102 69 184 189 184c50 0 98 -14 140 -43l-26 -60c-26 21 -75 40 -114 40c-80 0 -120 -57 -120 -121c0 -162 265 -141 265 -354
c0 -107 -66 -189 -184 -189c-60 0 -119 22 -165 65z" />
    <glyph glyph-name="sacute" unicode="&#x15b;" horiz-adv-x="348" 
d="M151 585l55 119h73l-72 -119h-56zM30 42l27 52c20 -18 60 -48 109 -48c50 0 84 31 84 80c0 120 -203 88 -203 251c0 83 54 138 144 138c38 0 79 -12 110 -36l-22 -55c-23 18 -57 33 -89 33c-45 0 -79 -27 -79 -77c0 -121 203 -88 203 -249c0 -77 -48 -143 -148 -143
c-51 0 -100 20 -136 54z" />
    <glyph glyph-name="Scircumflex" unicode="&#x15c;" horiz-adv-x="420" 
d="M125 752l67 119h69l67 -119h-60l-41 81h-2l-40 -81h-60zM32 53l33 57c34 -34 81 -59 132 -59c68 0 115 47 115 122c0 170 -265 152 -265 358c0 102 69 184 189 184c50 0 98 -14 140 -43l-26 -60c-26 21 -75 40 -114 40c-80 0 -120 -57 -120 -121
c0 -162 265 -141 265 -354c0 -107 -66 -189 -184 -189c-60 0 -119 22 -165 65z" />
    <glyph glyph-name="scircumflex" unicode="&#x15d;" horiz-adv-x="348" 
d="M82 585l67 119h69l67 -119h-60l-41 81h-2l-40 -81h-60zM30 42l27 52c20 -18 60 -48 109 -48c50 0 84 31 84 80c0 120 -203 88 -203 251c0 83 54 138 144 138c38 0 79 -12 110 -36l-22 -55c-23 18 -57 33 -89 33c-45 0 -79 -27 -79 -77c0 -121 203 -88 203 -249
c0 -77 -48 -143 -148 -143c-51 0 -100 20 -136 54z" />
    <glyph glyph-name="Scedilla" unicode="&#x15e;" horiz-adv-x="421" 
d="M161 -154c5 -2 20 -6 32 -6c19 0 38 9 38 36c0 23 -16 36 -42 36c-7 0 -13 -1 -13 -1l15 77c-58 2 -115 23 -159 65l33 57c34 -34 81 -59 132 -59c68 0 115 47 115 122c0 170 -265 152 -265 358c0 102 69 184 189 184c50 0 98 -14 140 -43l-26 -60c-26 21 -75 40 -114 40
c-80 0 -120 -57 -120 -121c0 -162 265 -141 265 -354c0 -97 -54 -173 -151 -186l-6 -46c31 -6 57 -31 57 -71c0 -57 -41 -79 -80 -79c-13 0 -27 1 -40 5v46z" />
    <glyph glyph-name="scedilla" unicode="&#x15f;" horiz-adv-x="349" 
d="M117 -154c5 -2 20 -6 32 -6c19 0 38 9 38 36c0 23 -16 36 -42 36c-7 0 -13 -1 -13 -1l15 78c-44 5 -86 23 -117 53l27 52c20 -18 60 -48 109 -48c50 0 84 31 84 80c0 120 -203 88 -203 251c0 83 54 138 144 138c38 0 79 -12 110 -36l-22 -55c-23 18 -57 33 -89 33
c-45 0 -79 -27 -79 -77c0 -121 203 -88 203 -249c0 -72 -42 -133 -128 -142l-6 -44c31 -6 57 -31 57 -71c0 -57 -41 -79 -80 -79c-13 0 -27 1 -40 5v46z" />
    <glyph glyph-name="Scaron" unicode="&#x160;" horiz-adv-x="420" 
d="M192 752l-67 119h60l40 -80h2l41 80h60l-67 -119h-69zM32 53l33 57c34 -34 81 -59 132 -59c68 0 115 47 115 122c0 170 -265 152 -265 358c0 102 69 184 189 184c50 0 98 -14 140 -43l-26 -60c-26 21 -75 40 -114 40c-80 0 -120 -57 -120 -121c0 -162 265 -141 265 -354
c0 -107 -66 -189 -184 -189c-60 0 -119 22 -165 65z" />
    <glyph glyph-name="scaron" unicode="&#x161;" horiz-adv-x="348" 
d="M149 585l-67 119h60l40 -80h2l41 80h60l-67 -119h-69zM30 42l27 52c20 -18 60 -48 109 -48c50 0 84 31 84 80c0 120 -203 88 -203 251c0 83 54 138 144 138c38 0 79 -12 110 -36l-22 -55c-23 18 -57 33 -89 33c-45 0 -79 -27 -79 -77c0 -121 203 -88 203 -249
c0 -77 -48 -143 -148 -143c-51 0 -100 20 -136 54z" />
    <glyph glyph-name="Tcommaaccent" unicode="&#x162;" horiz-adv-x="476" 
d="M204 0v643h-190v60h447v-60h-191v-643h-14l-7 -55c31 -6 57 -31 57 -71c0 -57 -41 -79 -80 -79c-13 0 -27 1 -40 5v46c5 -2 20 -6 32 -6c19 0 38 9 38 36c0 23 -16 36 -42 36c-7 0 -13 -1 -13 -1l17 89h-14z" />
    <glyph glyph-name="tcommaaccent" unicode="&#x163;" horiz-adv-x="261" 
d="M102 -154c5 -2 20 -6 32 -6c19 0 38 9 38 36c0 23 -16 36 -42 36c-7 0 -13 -1 -13 -1l21 108c-34 23 -63 70 -63 164v259h-51v57h52v143h64v-143h95v-57h-95v-253c0 -117 52 -133 85 -133c4 0 12 0 17 2v-60c-3 -1 -14 -2 -25 -2c-13 0 -28 1 -45 6l-7 -57
c31 -6 57 -31 57 -71c0 -57 -41 -79 -80 -79c-13 0 -27 1 -40 5v46z" />
    <glyph glyph-name="Tcaron" unicode="&#x164;" horiz-adv-x="476" 
d="M202 752l-67 119h60l40 -80h2l41 80h60l-67 -119h-69zM204 0v643h-190v60h447v-60h-191v-643h-66z" />
    <glyph glyph-name="tcaron" unicode="&#x165;" horiz-adv-x="261" 
d="M212 702h58c3 -17 5 -33 5 -49c0 -29 -6 -56 -18 -88h-51c8 29 14 54 14 80c0 16 -2 35 -8 57zM75 183v259h-51v57h52v143h64v-143h95v-57h-95v-253c0 -117 52 -133 85 -133c4 0 12 0 17 2v-60c-3 -1 -14 -2 -25 -2c-48 0 -142 19 -142 187z" />
    <glyph glyph-name="Tbar" unicode="&#x166;" horiz-adv-x="476" 
d="M82 326v54h122v263h-189v60h446v-60h-190v-263h126v-54h-126v-326h-67v326h-122z" />
    <glyph glyph-name="tbar" unicode="&#x167;" horiz-adv-x="264" 
d="M25 282v52h51v114h-51v51h52v143h65v-143h94v-51h-94v-114h95v-52h-95v-92c0 -118 55 -134 85 -134c10 0 17 2 17 2v-60s-9 -2 -24 -2c-49 0 -144 19 -144 187v99h-51z" />
    <glyph glyph-name="Utilde" unicode="&#x168;" horiz-adv-x="566" 
d="M72 221v482h66v-480c0 -114 57 -172 144 -172s145 58 145 174v478h67v-482c0 -148 -85 -233 -211 -233s-211 85 -211 233zM157 755c0 77 25 117 74 117c56 0 65 -71 99 -71c24 0 30 42 30 68h49c0 -77 -26 -117 -74 -117c-56 0 -66 71 -100 71c-23 0 -29 -42 -29 -68h-49
z" />
    <glyph glyph-name="utilde" unicode="&#x169;" horiz-adv-x="468" 
d="M61 148v355h65v-340c0 -56 9 -113 80 -113c75 0 132 77 132 157v296h65v-503h-64v51c0 18 3 32 3 32h-2c-15 -36 -60 -95 -149 -95c-94 0 -130 63 -130 160zM104 588c0 77 25 117 74 117c56 0 65 -71 99 -71c24 0 30 42 30 68h49c0 -77 -26 -117 -74 -117
c-56 0 -66 71 -100 71c-23 0 -29 -42 -29 -68h-49z" />
    <glyph glyph-name="Umacron" unicode="&#x16a;" horiz-adv-x="566" 
d="M72 221v482h66v-480c0 -114 57 -172 144 -172s145 58 145 174v478h67v-482c0 -148 -85 -233 -211 -233s-211 85 -211 233zM181 785v55h193v-55h-193z" />
    <glyph glyph-name="umacron" unicode="&#x16b;" horiz-adv-x="468" 
d="M61 148v355h65v-340c0 -56 9 -113 80 -113c75 0 132 77 132 157v296h65v-503h-64v51c0 18 3 32 3 32h-2c-15 -36 -60 -95 -149 -95c-94 0 -130 63 -130 160zM128 618v55h193v-55h-193z" />
    <glyph glyph-name="Ubreve" unicode="&#x16c;" horiz-adv-x="566" 
d="M72 221v482h66v-480c0 -114 57 -172 144 -172s145 58 145 174v478h67v-482c0 -148 -85 -233 -211 -233s-211 85 -211 233zM283 749c-50 0 -96 36 -96 108v14h49v-13c0 -43 23 -61 47 -61c23 0 46 18 46 62v12h50v-14c0 -72 -47 -108 -96 -108z" />
    <glyph glyph-name="ubreve" unicode="&#x16d;" horiz-adv-x="468" 
d="M61 148v355h65v-340c0 -56 9 -113 80 -113c75 0 132 77 132 157v296h65v-503h-64v51c0 18 3 32 3 32h-2c-15 -36 -60 -95 -149 -95c-94 0 -130 63 -130 160zM230 582c-50 0 -96 36 -96 108v14h49v-13c0 -43 23 -61 47 -61c23 0 46 18 46 62v12h50v-14
c0 -72 -47 -108 -96 -108z" />
    <glyph glyph-name="Uring" unicode="&#x16e;" horiz-adv-x="566" 
d="M283 741c-36 0 -64 29 -64 71s28 71 64 71s64 -29 64 -71s-28 -71 -64 -71zM283 778c18 0 25 15 25 34c0 21 -7 36 -25 36c-17 0 -26 -15 -26 -36c0 -19 8 -34 26 -34zM72 221v482h66v-480c0 -114 57 -172 144 -172s145 58 145 174v478h67v-482
c0 -148 -85 -233 -211 -233s-211 85 -211 233z" />
    <glyph glyph-name="uring" unicode="&#x16f;" horiz-adv-x="468" 
d="M230 574c-36 0 -64 29 -64 71s28 71 64 71s64 -29 64 -71s-28 -71 -64 -71zM230 611c18 0 25 15 25 34c0 21 -7 36 -25 36c-17 0 -26 -15 -26 -36c0 -19 8 -34 26 -34zM61 148v355h65v-340c0 -56 9 -113 80 -113c75 0 132 77 132 157v296h65v-503h-64v51c0 18 3 32 3 32
h-2c-15 -36 -60 -95 -149 -95c-94 0 -130 63 -130 160z" />
    <glyph glyph-name="Uhungarumlaut" unicode="&#x170;" horiz-adv-x="566" 
d="M72 221v482h66v-480c0 -114 57 -172 144 -172s145 58 145 174v478h67v-482c0 -148 -85 -233 -211 -233s-211 85 -211 233zM308 752l56 119h70l-71 -119h-55zM197 752l51 119h61l-53 -119h-59z" />
    <glyph glyph-name="uhungarumlaut" unicode="&#x171;" horiz-adv-x="468" 
d="M61 148v355h65v-340c0 -56 9 -113 80 -113c75 0 132 77 132 157v296h65v-503h-64v51c0 18 3 32 3 32h-2c-15 -36 -60 -95 -149 -95c-94 0 -130 63 -130 160zM256 585l56 119h70l-71 -119h-55zM145 585l51 119h61l-53 -119h-59z" />
    <glyph glyph-name="Uogonek" unicode="&#x172;" horiz-adv-x="565" 
d="M72 221v482h66v-480c0 -114 57 -172 144 -172s145 58 145 174v478h67v-482c0 -60 -13 -122 -68 -184c-25 -28 -75 -84 -75 -135c0 -50 44 -53 44 -53l-15 -54s-87 8 -87 91c0 49 28 86 47 109c-20 -5 -35 -7 -56 -7c-128 0 -212 86 -212 233z" />
    <glyph glyph-name="uogonek" unicode="&#x173;" horiz-adv-x="468" 
d="M61 148v355h65v-340c0 -56 9 -113 80 -113c75 0 132 77 132 157v296h65v-503c-16 -17 -52 -59 -52 -99c0 -47 44 -52 44 -52l-16 -54s-86 7 -86 92c0 51 36 95 54 113h-8v51c0 18 3 32 3 32h-2c-15 -36 -60 -95 -149 -95c-94 0 -130 63 -130 160z" />
    <glyph glyph-name="Wcircumflex" unicode="&#x174;" horiz-adv-x="715" 
d="M260 752l67 119h69l67 -119h-60l-41 81h-2l-40 -81h-60zM161 0l-136 703h66l100 -545c6 -33 11 -76 11 -76h2s4 42 11 76l115 545h69l103 -545c6 -34 9 -76 9 -76h3s5 43 11 76l100 545h66l-136 -703h-80l-95 494c-9 45 -15 105 -15 105h-3s-7 -59 -16 -104l-106 -495
h-79z" />
    <glyph glyph-name="wcircumflex" unicode="&#x175;" horiz-adv-x="644" 
d="M220 585l67 119h69l67 -119h-60l-41 81h-2l-40 -81h-60zM149 0l-125 503h67l86 -374c6 -24 11 -54 11 -54h1s5 31 10 54l90 372h66l90 -372c6 -23 10 -54 10 -54h2s5 29 11 54l87 374h65l-125 -503h-74l-88 358c-6 24 -10 55 -10 55h-2s-4 -31 -10 -55l-87 -358h-75z" />
    <glyph glyph-name="Ycircumflex" unicode="&#x176;" horiz-adv-x="456" 
d="M195 0v302l-183 401h74l111 -255c15 -37 30 -82 30 -82h2s16 45 32 82l110 255h73l-183 -401v-302h-66zM126 752l67 119h69l67 -119h-60l-41 81h-2l-40 -81h-60z" />
    <glyph glyph-name="ycircumflex" unicode="&#x177;" horiz-adv-x="419" 
d="M40 -132c0 0 21 -19 49 -19c34 0 57 37 71 84l22 70l-164 500h70l109 -366c7 -24 11 -55 11 -55h2s7 32 13 55l105 366h68l-182 -597c-21 -71 -66 -116 -122 -116c-44 0 -73 25 -73 25zM108 585l67 119h69l67 -119h-60l-41 81h-2l-40 -81h-60z" />
    <glyph glyph-name="Ydieresis" unicode="&#x178;" horiz-adv-x="456" 
d="M195 0v302l-183 401h74l111 -255c15 -37 30 -82 30 -82h2s16 45 32 82l110 255h73l-183 -401v-302h-66zM263 785v86h55v-86h-55zM139 785v86h55v-86h-55z" />
    <glyph glyph-name="Zacute" unicode="&#x179;" horiz-adv-x="452" 
d="M193 752l55 119h73l-72 -119h-56zM27 0v50l277 528c19 38 38 65 38 65v2s-14 -2 -40 -2h-262v60h377v-49l-277 -529c-20 -37 -39 -65 -39 -65v-2s15 3 40 3h279v-61h-393z" />
    <glyph glyph-name="zacute" unicode="&#x17a;" horiz-adv-x="394" 
d="M163 585l55 119h73l-72 -119h-56zM31 0v45l217 353c14 26 30 47 30 47v2s-12 -2 -37 -2h-201v58h316v-45l-217 -354c-15 -24 -32 -46 -32 -46v-2s13 2 38 2h218v-58h-332z" />
    <glyph glyph-name="Zdotaccent" unicode="&#x17b;" horiz-adv-x="452" 
d="M27 0v50l277 528c19 38 38 65 38 65v2s-14 -2 -40 -2h-262v60h377v-49l-277 -529c-20 -37 -39 -65 -39 -65v-2s15 3 40 3h279v-61h-393zM194 786v85h60v-85h-60z" />
    <glyph glyph-name="zdotaccent" unicode="&#x17c;" horiz-adv-x="394" 
d="M31 0v45l217 353c14 26 30 47 30 47v2s-12 -2 -37 -2h-201v58h316v-45l-217 -354c-15 -24 -32 -46 -32 -46v-2s13 2 38 2h218v-58h-332zM163 619v85h60v-85h-60z" />
    <glyph glyph-name="Zcaron" unicode="&#x17d;" horiz-adv-x="452" 
d="M191 752l-67 119h60l40 -80h2l41 80h60l-67 -119h-69zM27 0v50l277 528c19 38 38 65 38 65v2s-14 -2 -40 -2h-262v60h377v-49l-277 -529c-20 -37 -39 -65 -39 -65v-2s15 3 40 3h279v-61h-393z" />
    <glyph glyph-name="zcaron" unicode="&#x17e;" horiz-adv-x="394" 
d="M161 585l-67 119h60l40 -80h2l41 80h60l-67 -119h-69zM31 0v45l217 353c14 26 30 47 30 47v2s-12 -2 -37 -2h-201v58h316v-45l-217 -354c-15 -24 -32 -46 -32 -46v-2s13 2 38 2h218v-58h-332z" />
    <glyph glyph-name="longs" unicode="&#x17f;" horiz-adv-x="230" 
d="M79 0v442h-48v57h48v22c0 166 95 187 142 187c16 0 27 -2 27 -2v-59s-8 2 -19 2c-30 0 -83 -14 -83 -128v-521h-67z" />
    <glyph glyph-name="florin" unicode="&#x192;" horiz-adv-x="439" 
d="M24 -42c0 0 25 -5 50 -5c29 0 83 15 91 129l19 283h-67v56h72l7 108c13 164 105 186 151 186c33 0 67 -7 67 -7v-61s-35 7 -63 7c-30 0 -81 -17 -89 -130l-7 -103h90v-56h-94l-19 -285c-12 -167 -111 -186 -154 -186c-30 0 -54 5 -54 5v59z" />
    <glyph glyph-name="Scommaaccent" unicode="&#x218;" horiz-adv-x="420" 
d="M183 -63h58c3 -17 5 -33 5 -49c0 -30 -6 -57 -18 -90h-51c8 30 14 55 14 81c0 17 -2 36 -8 58zM32 53l33 57c34 -34 81 -59 132 -59c68 0 115 47 115 122c0 170 -265 152 -265 358c0 102 69 184 189 184c50 0 98 -14 140 -43l-26 -60c-26 21 -75 40 -114 40
c-80 0 -120 -57 -120 -121c0 -162 265 -141 265 -354c0 -107 -66 -189 -184 -189c-60 0 -119 22 -165 65z" />
    <glyph glyph-name="scommaaccent" unicode="&#x219;" horiz-adv-x="348" 
d="M137 -63h58c3 -17 5 -33 5 -49c0 -30 -6 -57 -18 -90h-51c8 30 14 55 14 81c0 17 -2 36 -8 58zM30 42l27 52c20 -18 60 -48 109 -48c50 0 84 31 84 80c0 120 -203 88 -203 251c0 83 54 138 144 138c38 0 79 -12 110 -36l-22 -55c-23 18 -57 33 -89 33
c-45 0 -79 -27 -79 -77c0 -121 203 -88 203 -249c0 -77 -48 -143 -148 -143c-51 0 -100 20 -136 54z" />
    <glyph glyph-name="uni021A" unicode="&#x21a;" horiz-adv-x="476" 
d="M208 -63h58c3 -17 5 -33 5 -49c0 -30 -6 -57 -18 -90h-51c8 30 14 55 14 81c0 17 -2 36 -8 58zM204 0v643h-190v60h447v-60h-191v-643h-66z" />
    <glyph glyph-name="uni021B" unicode="&#x21b;" horiz-adv-x="261" 
d="M127 -63h58c3 -17 5 -33 5 -49c0 -30 -6 -57 -18 -90h-51c8 30 14 55 14 81c0 17 -2 36 -8 58zM75 183v259h-51v57h52v143h64v-143h95v-57h-95v-253c0 -117 52 -133 85 -133c4 0 12 0 17 2v-60c-3 -1 -14 -2 -25 -2c-48 0 -142 19 -142 187z" />
    <glyph glyph-name="circumflex" unicode="&#x2c6;" horiz-adv-x="385" 
d="M91 752l67 119h69l67 -119h-60l-41 81h-2l-40 -81h-60z" />
    <glyph glyph-name="caron" unicode="&#x2c7;" horiz-adv-x="385" 
d="M158 752l-67 119h60l40 -80h2l41 80h60l-67 -119h-69z" />
    <glyph glyph-name="breve" unicode="&#x2d8;" horiz-adv-x="386" 
d="M193 749c-50 0 -96 36 -96 108v14h49v-13c0 -43 23 -61 47 -61c23 0 46 18 46 62v12h50v-14c0 -72 -47 -108 -96 -108z" />
    <glyph glyph-name="dotaccent" unicode="&#x2d9;" horiz-adv-x="386" 
d="M163 786v85h60v-85h-60z" />
    <glyph glyph-name="ring" unicode="&#x2da;" horiz-adv-x="386" 
d="M193 741c-36 0 -64 29 -64 71s28 71 64 71s64 -29 64 -71s-28 -71 -64 -71zM193 778c18 0 25 15 25 34c0 21 -7 36 -25 36c-17 0 -26 -15 -26 -36c0 -19 8 -34 26 -34z" />
    <glyph glyph-name="ogonek" unicode="&#x2db;" horiz-adv-x="385" 
d="M134 -112c0 72 75 130 75 130l43 -10s-60 -55 -60 -107c0 -48 44 -52 44 -52l-15 -54s-87 7 -87 93z" />
    <glyph glyph-name="tilde" unicode="&#x2dc;" horiz-adv-x="386" 
d="M67 755c0 77 25 117 74 117c56 0 65 -71 99 -71c24 0 30 42 30 68h49c0 -77 -26 -117 -74 -117c-56 0 -66 71 -100 71c-23 0 -29 -42 -29 -68h-49z" />
    <glyph glyph-name="hungarumlaut" unicode="&#x2dd;" horiz-adv-x="386" 
d="M186 752l56 119h70l-71 -119h-55zM75 752l51 119h61l-53 -119h-59z" />
    <glyph glyph-name="uni1E9E" unicode="&#x1e9e;" horiz-adv-x="486" 
d="M73 0v516c0 106 64 187 151 187h201v-50l-119 -224c-13 -25 -20 -36 -20 -36v-2h23c73 1 140 -74 140 -189c0 -114 -66 -202 -158 -202h-63v61h55c63 0 98 63 98 140c0 75 -34 138 -97 138h-64v48l104 201c20 39 31 55 31 55v2s-7 -2 -34 -2h-94c-52 0 -88 -57 -88 -126
v-517h-66z" />
    <glyph glyph-name="endash" unicode="&#x2013;" horiz-adv-x="515" 
d="M59 255v58h397v-58h-397z" />
    <glyph glyph-name="emdash" unicode="&#x2014;" horiz-adv-x="668" 
d="M59 255v58h551v-58h-551z" />
    <glyph glyph-name="quoteleft" unicode="&#x2018;" horiz-adv-x="196" 
d="M52 539l48 173h49l-32 -173h-65z" />
    <glyph glyph-name="quoteright" unicode="&#x2019;" horiz-adv-x="192" 
d="M55 541l31 172h65l-46 -172h-50z" />
    <glyph glyph-name="quotesinglbase" unicode="&#x201a;" horiz-adv-x="206" 
d="M45 -90l32 173h64l-48 -173h-48z" />
    <glyph glyph-name="quotedblleft" unicode="&#x201c;" horiz-adv-x="298" 
d="M154 539l47 173h50l-32 -173h-65zM52 539l48 173h50l-33 -173h-65z" />
    <glyph glyph-name="quotedblright" unicode="&#x201d;" horiz-adv-x="294" 
d="M157 541l32 172h65l-48 -172h-49zM55 541l31 172h66l-47 -172h-50z" />
    <glyph glyph-name="quotedblbase" unicode="&#x201e;" horiz-adv-x="307" 
d="M145 -90l32 173h65l-48 -173h-49zM45 -90l32 173h64l-48 -173h-48z" />
    <glyph glyph-name="dagger" unicode="&#x2020;" horiz-adv-x="327" 
d="M130 -50v495h-92v58h92v200h64v-200h95v-58h-95v-495h-64z" />
    <glyph glyph-name="daggerdbl" unicode="&#x2021;" horiz-adv-x="347" 
d="M48 179v57h92v210h-92v57h92v200h63v-200h95v-57h-95v-210h95v-57h-95v-229h-63v229h-92z" />
    <glyph glyph-name="bullet" unicode="&#x2022;" horiz-adv-x="378" 
d="M190 148c-71 0 -116 64 -116 143s45 143 116 143c70 0 114 -64 114 -143s-44 -143 -114 -143z" />
    <glyph glyph-name="ellipsis" unicode="&#x2026;" horiz-adv-x="571" 
d="M443 0v80h69v-80h-69zM251 0v80h69v-80h-69zM59 0v80h68v-80h-68z" />
    <glyph glyph-name="perthousand" unicode="&#x2030;" horiz-adv-x="842" 
d="M157 437c-69 0 -113 62 -113 138c0 77 44 140 113 140s114 -63 114 -140c0 -76 -45 -138 -114 -138zM52 0l418 703h64l-418 -703h-64zM157 491c41 0 57 38 57 85c0 46 -16 85 -57 85c-40 0 -56 -39 -56 -85c0 -47 16 -85 56 -85zM585 127c0 76 44 139 113 139
s114 -63 114 -139c0 -77 -45 -139 -114 -139s-113 62 -113 139zM317 127c0 76 43 139 113 139c69 0 114 -63 114 -139c0 -77 -45 -139 -114 -139c-70 0 -113 62 -113 139zM642 127c0 -47 16 -85 56 -85c41 0 58 38 58 85c0 46 -17 85 -58 85c-40 0 -56 -39 -56 -85zM373 127
c0 -47 16 -85 57 -85c40 0 57 38 57 85c0 46 -17 85 -57 85c-41 0 -57 -39 -57 -85z" />
    <glyph glyph-name="guilsinglleft" unicode="&#x2039;" horiz-adv-x="280" 
d="M167 77l-126 205l126 206h68l-127 -206l127 -205h-68z" />
    <glyph glyph-name="guilsinglright" unicode="&#x203a;" horiz-adv-x="280" 
d="M46 77l126 205l-126 206h66l127 -206l-127 -205h-66z" />
    <glyph glyph-name="fraction" unicode="&#x2044;" horiz-adv-x="126" 
d="M-38 0h-54l259 703h53z" />
    <glyph glyph-name="Euro" unicode="&#x20ac;" horiz-adv-x="439" 
d="M18 267v47h46c-2 32 -2 62 2 96h-48v47h55c31 150 126 258 261 258c24 0 48 -3 71 -9l-12 -65c-14 5 -39 10 -61 10c-90 0 -166 -79 -192 -194h227l-8 -47h-225c-3 -31 -4 -61 0 -96h211l-7 -47h-195c20 -102 75 -214 191 -214c25 0 51 6 68 11l12 -64
c-15 -5 -49 -12 -82 -12c-137 0 -237 116 -262 279h-52z" />
    <glyph glyph-name="trademark" unicode="&#x2122;" horiz-adv-x="774" 
d="M369 265l26 438h57l77 -242c6 -19 10 -43 10 -43h3s4 24 10 43l78 242h55l27 -438h-53l-18 296c0 15 2 38 2 38h-3l-79 -252h-42l-79 252h-2s2 -23 1 -38l-17 -296h-53zM174 265v386h-119v52h292v-52h-119v-386h-54z" />
    <glyph glyph-name="minus" unicode="&#x2212;" horiz-adv-x="477" 
d="M40 255v58h395v-58h-395z" />
    <glyph glyph-name="infinity" unicode="&#x221e;" horiz-adv-x="377" 
d="M188 176c-82 0 -137 77 -137 173s55 172 137 172c84 0 137 -76 137 -172s-53 -173 -137 -173z" />
    <glyph glyph-name="approxequal" unicode="&#x2248;" horiz-adv-x="477" 
d="M79 324l-36 38c26 33 70 72 120 72c68 0 98 -70 152 -70c31 0 61 26 83 54l35 -38c-24 -31 -68 -73 -121 -73c-68 0 -96 71 -150 71c-33 0 -62 -27 -83 -54zM79 150l-36 37c26 34 70 73 120 73c68 0 98 -71 152 -71c31 0 61 27 83 54l35 -38c-24 -30 -68 -72 -121 -72
c-68 0 -96 71 -150 71c-33 0 -62 -27 -83 -54z" />
    <glyph glyph-name="notequal" unicode="&#x2260;" horiz-adv-x="477" 
d="M95 79l51 88h-90v57h120l70 120h-190v56h220l68 117l42 -27l-52 -90h86v-56h-117l-68 -120h185v-57h-217l-66 -115z" />
    <glyph glyph-name="lessequal" unicode="&#x2264;" horiz-adv-x="477" 
d="M55 259v50l354 203v-68l-278 -159v-2l278 -159v-68zM55 -106h354v-57h-354v57z" />
    <glyph glyph-name="greaterequal" unicode="&#x2265;" horiz-adv-x="477" 
d="M67 56v68l279 159v2l-279 159v68l355 -203v-50zM66 -106h354v-57h-354v57z" />
    <glyph glyph-name="commaaccent" unicode="&#xf6c3;" horiz-adv-x="258" 
d="M101 -63h58c3 -17 5 -33 5 -49c0 -30 -6 -57 -18 -90h-51c8 30 14 55 14 81c0 17 -2 36 -8 58z" />
    <glyph glyph-name="apple" horiz-adv-x="1130" 
d="M168 -5v152l-126 72v278l126 71v151l265 142l134 -71l132 71l265 -142v-151l124 -71v-278l-124 -72v-152l-265 -141l-132 71l-134 -71zM208 30l238 -126l121 66l118 -66l238 126v139l114 64v249l-114 66v136l-238 126l-118 -64l-121 64l-238 -126v-136l-114 -66v-249
l114 -64v-139zM242 64v121l-99 60v225l99 58v123l215 114l110 -59l107 59l214 -114v-123l100 -58v-225l-100 -60v-121l-214 -114l-107 58l-110 -58zM447 91h43v228h228v40h-228v192h199c23 0 29 -8 29 -29v-42h42v54c0 39 -15 57 -58 57h-320v-40h65v-460z" />
    <glyph glyph-name="zero.tnum" horiz-adv-x="439" 
d="M220 -12c-153 0 -191 160 -191 364c0 202 38 363 191 363c154 0 191 -161 191 -363c0 -204 -37 -364 -191 -364zM220 51c104 0 122 131 122 301c0 168 -18 300 -122 300s-122 -132 -122 -300c0 -170 18 -301 122 -301z" />
    <glyph glyph-name="one.tnum" horiz-adv-x="439" 
d="M76 0v59h121v514c0 20 1 38 1 38h-2s-5 -14 -25 -41l-54 -67l-42 40l127 160h60v-644h118v-59h-304z" />
    <glyph glyph-name="two.tnum" horiz-adv-x="439" 
d="M51 0c-3 16 -4 30 -4 47c0 234 271 273 271 474c0 81 -44 130 -114 130c-46 0 -92 -22 -118 -62l-47 37c33 54 105 89 172 89c107 0 177 -73 177 -190c0 -228 -269 -276 -272 -464h280v-61h-345z" />
    <glyph glyph-name="three.tnum" horiz-adv-x="439" 
d="M38 50l34 53c27 -27 65 -51 119 -51c75 0 135 55 135 155c0 96 -58 148 -158 148h-46l-14 43l166 210c24 29 30 35 30 35v2s-16 -2 -44 -2h-196v60h322v-52l-192 -238c112 -6 201 -69 201 -204c0 -129 -78 -221 -199 -221c-59 0 -116 19 -158 62z" />
    <glyph glyph-name="four.tnum" horiz-adv-x="439" 
d="M14 191v48l256 464h76v-450h76v-62h-76v-191h-65v191h-267zM86 253h195v297c0 30 2 63 2 63h-2s-9 -26 -22 -50l-173 -308v-2z" />
    <glyph glyph-name="five.tnum" horiz-adv-x="439" 
d="M43 50l35 53c26 -28 68 -51 115 -51c82 0 137 70 137 168c0 104 -63 162 -142 162c-27 0 -58 -8 -81 -20l-40 17l27 324h270v-60h-211l-15 -172c-2 -21 -5 -40 -5 -40h2c20 9 43 12 68 12c101 0 197 -82 197 -224c0 -134 -87 -231 -203 -231c-55 0 -112 21 -154 62z" />
    <glyph glyph-name="six.tnum" horiz-adv-x="439" 
d="M237 -12c-132 0 -203 136 -203 333c0 173 53 394 244 394c33 0 73 -7 102 -24l-21 -59c-22 13 -57 20 -81 20c-126 0 -163 -142 -173 -272h1c29 41 76 68 134 68c108 0 176 -90 176 -228c0 -141 -68 -232 -179 -232zM240 51c74 0 107 73 107 167c0 99 -39 170 -120 170
c-69 0 -122 -56 -122 -128c0 -70 32 -209 135 -209z" />
    <glyph glyph-name="seven.tnum" horiz-adv-x="439" 
d="M88 0l220 576c14 38 29 67 29 67v2s-14 -2 -39 -2h-251v60h358v-49l-248 -654h-69z" />
    <glyph glyph-name="eight.tnum" horiz-adv-x="439" 
d="M28 181c0 119 86 187 113 206c-51 37 -91 84 -91 160c0 82 49 168 171 168c127 0 177 -80 177 -169c0 -101 -69 -176 -89 -196c55 -38 100 -88 100 -169c0 -103 -73 -193 -193 -193c-117 0 -188 85 -188 193zM341 177c0 94 -81 133 -152 177c-21 -13 -92 -63 -92 -167
c0 -82 46 -137 121 -137c81 0 123 63 123 127zM118 551c0 -90 74 -129 143 -171c15 15 70 71 70 160c0 65 -33 113 -110 113c-76 0 -103 -47 -103 -102z" />
    <glyph glyph-name="nine.tnum" horiz-adv-x="439" 
d="M52 12l23 59c21 -13 54 -20 80 -20c127 0 169 142 179 272h-2c-29 -41 -75 -68 -133 -68c-108 0 -171 91 -171 227c0 143 68 233 178 233c121 0 199 -137 199 -333c0 -174 -59 -394 -250 -394c-35 0 -72 7 -103 24zM212 315c69 0 122 56 122 128c0 70 -36 209 -131 209
c-71 0 -107 -72 -107 -167c0 -99 38 -170 116 -170z" />
    <glyph glyph-name="hyphen.case" horiz-adv-x="340" 
d="M59 317v63h222v-63h-222z" />
    <glyph glyph-name="parenleft.case" horiz-adv-x="228" 
d="M134 -65c-55 120 -88 274 -88 432c0 144 32 276 88 393h59c-56 -121 -88 -253 -88 -393c0 -150 30 -297 88 -432h-59z" />
    <glyph glyph-name="parenright.case" horiz-adv-x="228" 
d="M35 -65c59 135 87 282 87 432c0 140 -30 272 -87 393h59c56 -117 89 -249 89 -393c0 -158 -34 -312 -89 -432h-59z" />
    <glyph glyph-name="bracketleft.case" horiz-adv-x="233" 
d="M73 -65v825h118v-54h-59v-716h59v-55h-118z" />
    <glyph glyph-name="bracketright.case" horiz-adv-x="233" 
d="M43 -10h58v716h-58v54h117v-825h-117v55z" />
    <glyph glyph-name="braceleft.case" horiz-adv-x="274" 
d="M101 113v95c0 47 -15 102 -66 115v60c50 13 66 66 66 116v83c0 164 86 178 120 178h16v-55s-3 1 -9 1c-20 0 -68 -11 -68 -126v-99c0 -50 -18 -101 -63 -127v-2c46 -21 63 -78 63 -127v-111c0 -115 48 -125 68 -125h9v-55s-7 -1 -16 -1c-34 0 -120 14 -120 180z" />
    <glyph glyph-name="braceright.case" horiz-adv-x="274" 
d="M37 -11h9c20 0 68 10 68 125v111c0 55 19 106 62 127v2c-37 20 -62 66 -62 127v99c0 115 -48 126 -68 126c-6 0 -9 -1 -9 -1v55h16c33 0 120 -14 120 -178v-83c0 -48 16 -103 66 -116v-60c-46 -10 -66 -63 -66 -115v-95c0 -166 -87 -180 -120 -180c-10 0 -16 1 -16 1v55z
" />
    <glyph glyph-name="at.case" horiz-adv-x="615" 
d="M48 358c0 204 109 359 285 359c121 0 189 -79 189 -186v-320h55v-54h-200c-106 0 -161 88 -161 192c0 103 55 192 161 192h81c0 72 -50 118 -126 118c-138 0 -218 -132 -218 -301c0 -182 94 -316 223 -316v-58c-167 0 -289 158 -289 374zM277 350c0 -76 36 -137 105 -137
h76v275h-74c-71 0 -107 -63 -107 -138z" />
    <glyph glyph-name="guillemotleft.case" horiz-adv-x="428" 
d="M316 137l-126 205l126 206h67l-126 -206l126 -205h-67zM167 137l-126 205l126 206h68l-127 -206l127 -205h-68z" />
    <glyph glyph-name="guillemotright.case" horiz-adv-x="428" 
d="M194 137l126 205l-126 206h67l126 -206l-126 -205h-67zM45 137l126 205l-126 206h67l127 -206l-127 -205h-67z" />
    <glyph glyph-name="guilsinglleft.case" horiz-adv-x="280" 
d="M167 137l-126 205l126 206h68l-127 -206l127 -205h-68z" />
    <glyph glyph-name="guilsinglright.case" horiz-adv-x="280" 
d="M45 137l126 205l-126 206h67l127 -206l-127 -205h-67z" />
    <glyph glyph-name="endash.case" horiz-adv-x="516" 
d="M60 315v58h397v-58h-397z" />
    <glyph glyph-name="emdash.case" horiz-adv-x="669" 
d="M59 315v58h551v-58h-551z" />
    <glyph glyph-name="periodcentered.case" horiz-adv-x="187" 
d="M59 306v80h69v-80h-69z" />
    <glyph glyph-name="questiondown.case" horiz-adv-x="360" 
d="M239 519v-42c0 -160 -133 -178 -133 -303c0 -69 38 -123 105 -123c29 0 63 9 85 28l29 -51c-29 -26 -77 -41 -121 -41c-103 0 -167 74 -167 183c0 158 138 170 138 313v36h64zM241 703v-77h-69v77h69z" />
    <glyph glyph-name="exclamdown.case" horiz-adv-x="215" 
d="M136 519l4 -519h-67l4 519h59zM141 703v-77h-69v77h69z" />
    <glyph glyph-name="bullet.case" horiz-adv-x="377" 
d="M190 209c-71 0 -116 64 -116 143s45 143 116 143c70 0 114 -64 114 -143s-44 -143 -114 -143z" />
    <glyph glyph-name="zero.p_osf" horiz-adv-x="453" 
d="M43 270c0 142 58 285 184 285s183 -143 183 -285s-58 -282 -183 -282c-126 0 -184 141 -184 282zM110 272c0 -111 37 -222 117 -222s116 111 116 221c0 111 -36 222 -116 222s-117 -111 -117 -221z" />
    <glyph glyph-name="one.p_osf" horiz-adv-x="368" 
d="M53 0v58h118v361c0 27 1 53 1 53h-1s-13 -13 -31 -26l-75 -62l-29 47l141 112h58v-485h107v-58h-289z" />
    <glyph glyph-name="two.p_osf" horiz-adv-x="414" 
d="M47 0v49c146 136 241 221 241 331c0 82 -48 115 -102 115c-45 0 -84 -26 -114 -58l-33 43c26 31 90 75 155 75c106 0 162 -80 162 -172c0 -107 -88 -205 -223 -325v-2s16 3 46 3h195v-59h-327z" />
    <glyph glyph-name="three.p_osf" horiz-adv-x="416" 
d="M31 -65l32 51c27 -30 71 -54 115 -54c75 0 133 59 133 148c0 92 -58 134 -156 134h-40l-15 38l160 199c23 27 31 34 31 34v2s-17 -3 -46 -3h-191v59h314v-51l-182 -225c105 -6 191 -62 191 -185c0 -118 -77 -210 -196 -210c-54 0 -112 23 -150 63z" />
    <glyph glyph-name="four.p_osf" horiz-adv-x="455" 
d="M25 38v45l243 460h77v-446h81v-59h-81v-154h-64v154h-256zM96 97h185v293c0 29 3 68 3 68h-2s-13 -36 -26 -61z" />
    <glyph glyph-name="five.p_osf" horiz-adv-x="425" 
d="M34 -56l34 52c29 -33 73 -55 119 -55c84 0 139 65 139 153c0 93 -65 149 -145 149c-49 0 -82 -22 -82 -22l-39 16l27 306h269v-59h-212l-15 -155c0 -10 -5 -40 -5 -40h2s27 12 68 12c103 0 198 -79 198 -208c0 -122 -86 -212 -203 -212c-59 0 -115 24 -155 63z" />
    <glyph glyph-name="six.p_osf" horiz-adv-x="460" 
d="M47 303c0 162 52 368 242 368c34 0 72 -7 101 -23l-19 -56c-19 11 -57 20 -82 20c-125 0 -163 -136 -173 -258h2c29 41 74 65 132 65c110 0 169 -83 169 -208c0 -137 -71 -223 -177 -223c-130 0 -195 130 -195 315zM116 243c0 -54 24 -196 129 -196c71 0 108 69 108 159
s-34 157 -114 157c-70 0 -123 -55 -123 -120z" />
    <glyph glyph-name="seven.p_osf" horiz-adv-x="395" 
d="M75 -116l207 539c14 36 27 61 27 61v2s-13 -2 -38 -2h-242v59h348v-46l-235 -613h-67z" />
    <glyph glyph-name="eight.p_osf" horiz-adv-x="456" 
d="M46 172c0 118 91 181 107 192c-49 36 -87 80 -87 153c0 78 46 155 165 155c116 0 165 -76 165 -160c0 -95 -62 -166 -81 -185c51 -36 94 -81 94 -158c0 -97 -70 -181 -184 -181c-111 0 -179 80 -179 184zM342 169c0 83 -74 121 -143 165c-11 -8 -86 -55 -86 -157
c0 -78 45 -130 113 -130c74 0 116 59 116 122zM132 517c0 -80 70 -118 138 -161c14 15 61 69 61 147c0 66 -31 110 -102 110c-70 0 -97 -45 -97 -96z" />
    <glyph glyph-name="nine.p_osf" horiz-adv-x="449" 
d="M80 -49c20 -11 49 -20 78 -20c125 0 171 137 181 259h-2c-28 -42 -74 -66 -131 -66c-111 0 -170 83 -170 208c0 137 71 223 178 223c130 0 195 -130 195 -315c0 -162 -62 -368 -251 -368c-34 0 -68 7 -97 23zM217 180c70 0 123 55 123 120c0 54 -24 196 -130 196
c-71 0 -107 -69 -107 -159s33 -157 114 -157z" />
    <glyph glyph-name="zero.t_osf" horiz-adv-x="439" 
d="M36 270c0 142 58 285 184 285s183 -143 183 -285s-58 -282 -183 -282c-126 0 -184 141 -184 282zM103 272c0 -111 37 -222 117 -222s116 111 116 221c0 111 -36 222 -116 222s-117 -111 -117 -221z" />
    <glyph glyph-name="one.t_osf" horiz-adv-x="439" 
d="M89 0v58h118v361c0 27 1 53 1 53h-1s-13 -13 -31 -26l-75 -62l-29 47l141 112h58v-485h107v-58h-289z" />
    <glyph glyph-name="two.t_osf" horiz-adv-x="439" 
d="M60 0v49c146 136 241 221 241 331c0 82 -48 115 -102 115c-45 0 -84 -26 -114 -58l-33 43c26 31 90 75 155 75c106 0 162 -80 162 -172c0 -107 -88 -205 -223 -325v-2s16 3 46 3h195v-59h-327z" />
    <glyph glyph-name="three.t_osf" horiz-adv-x="439" 
d="M43 -65l32 51c27 -30 71 -54 115 -54c75 0 133 59 133 148c0 92 -58 134 -156 134h-40l-15 38l160 199c23 27 31 34 31 34v2s-17 -3 -46 -3h-191v59h314v-51l-182 -225c105 -6 191 -62 191 -185c0 -118 -77 -210 -196 -210c-54 0 -112 23 -150 63z" />
    <glyph glyph-name="four.t_osf" horiz-adv-x="439" 
d="M18 38v45l243 460h77v-446h81v-59h-81v-154h-64v154h-256zM89 97h185v293c0 29 3 68 3 68h-2s-13 -36 -26 -61z" />
    <glyph glyph-name="five.t_osf" horiz-adv-x="439" 
d="M41 -56l34 52c29 -33 73 -55 119 -55c84 0 139 65 139 153c0 93 -65 149 -145 149c-49 0 -82 -22 -82 -22l-39 16l27 306h269v-59h-212l-15 -155c0 -10 -5 -40 -5 -40h2s27 12 68 12c103 0 198 -79 198 -208c0 -122 -86 -212 -203 -212c-59 0 -115 24 -155 63z" />
    <glyph glyph-name="six.t_osf" horiz-adv-x="439" 
d="M37 303c0 162 52 368 242 368c34 0 72 -7 101 -23l-19 -56c-19 11 -57 20 -82 20c-125 0 -163 -136 -173 -258h2c29 41 74 65 132 65c110 0 169 -83 169 -208c0 -137 -71 -223 -177 -223c-130 0 -195 130 -195 315zM106 243c0 -54 24 -196 129 -196c71 0 108 69 108 159
s-34 157 -114 157c-70 0 -123 -55 -123 -120z" />
    <glyph glyph-name="seven.t_osf" horiz-adv-x="439" 
d="M97 -116l207 539c14 36 27 61 27 61v2s-13 -2 -38 -2h-242v59h348v-46l-235 -613h-67z" />
    <glyph glyph-name="eight.t_osf" horiz-adv-x="439" 
d="M37 172c0 118 91 181 107 192c-49 36 -87 80 -87 153c0 78 46 155 165 155c116 0 165 -76 165 -160c0 -95 -62 -166 -81 -185c51 -36 94 -81 94 -158c0 -97 -70 -181 -184 -181c-111 0 -179 80 -179 184zM333 169c0 83 -74 121 -143 165c-11 -8 -86 -55 -86 -157
c0 -78 45 -130 113 -130c74 0 116 59 116 122zM123 517c0 -80 70 -118 138 -161c14 15 61 69 61 147c0 66 -31 110 -102 110c-70 0 -97 -45 -97 -96z" />
    <glyph glyph-name="nine.t_osf" horiz-adv-x="439" 
d="M76 -49c20 -11 49 -20 78 -20c125 0 171 137 181 259h-2c-28 -42 -74 -66 -131 -66c-111 0 -170 83 -170 208c0 137 71 223 178 223c130 0 195 -130 195 -315c0 -162 -62 -368 -251 -368c-34 0 -68 7 -97 23zM213 180c70 0 123 55 123 120c0 54 -24 196 -130 196
c-71 0 -107 -69 -107 -159s33 -157 114 -157z" />
    <glyph glyph-name="dollar.osf" horiz-adv-x="402" 
d="M43 50l30 54c22 -18 68 -43 117 -43c59 0 103 35 103 88c0 125 -241 117 -241 280c0 72 48 131 131 144v99h48v-96c48 -2 90 -19 116 -34l-23 -55c-19 12 -65 29 -101 29c-66 0 -104 -44 -104 -89c0 -119 240 -108 240 -277c0 -77 -47 -135 -131 -147v-107h-49v105
c-60 3 -106 27 -136 49z" />
    <glyph glyph-name="cent.osf" horiz-adv-x="436" 
d="M198 -25v85c-100 14 -159 120 -159 241c0 120 59 226 159 240v84h51v-84c71 -10 114 -60 140 -130l-62 -23c-18 50 -43 94 -102 94c-79 0 -123 -83 -123 -182s43 -182 123 -182c57 0 84 42 102 95l62 -22c-24 -67 -66 -122 -140 -131v-85h-51z" />
    <glyph glyph-name="sterling.osf" horiz-adv-x="450" 
d="M50 0v60h47v188h-50v51h50v101c0 113 63 187 166 187c41 0 82 -12 116 -37l-31 -53c-23 16 -57 28 -86 28c-71 0 -100 -60 -100 -126v-100h138v-51h-138v-189h238v-59h-350z" />
    <glyph glyph-name="yen.osf" horiz-adv-x="485" 
d="M86 113v48h126v42l-22 51h-104v48h81l-124 275h71l99 -233c16 -39 29 -86 29 -86h2s13 46 29 86l100 233h70l-124 -275h79v-48h-102l-21 -51v-42h123v-48h-123v-113h-63v113h-126z" />
    <glyph glyph-name="florin.osf" horiz-adv-x="440" 
d="M24 -64c0 0 25 -6 50 -6c28 0 84 17 93 131l18 258h-67v54h72l8 112c13 165 103 187 148 187c33 0 67 -7 67 -7v-59s-34 7 -63 7c-30 0 -80 -18 -88 -131l-9 -109h92v-54h-95l-20 -259c-12 -168 -109 -187 -152 -187c-30 0 -54 6 -54 6v57z" />
    <glyph glyph-name="Euro.osf" horiz-adv-x="474" 
d="M44 194v48h52c-4 27 -3 57 0 87h-52v47h59c26 114 105 211 230 211c26 0 52 -3 77 -12l-11 -57c-16 6 -44 11 -65 11c-88 0 -142 -70 -164 -153h206l-8 -47h-207c-3 -29 -3 -58 1 -87h191l-8 -48h-173c22 -82 78 -147 165 -147c23 0 47 5 69 13l12 -57
c-21 -9 -56 -15 -85 -15c-122 0 -200 92 -229 206h-60z" />
    <glyph glyph-name="zero.numerator" 
d="M148 258c-94 0 -122 100 -122 228s28 227 122 227c93 0 122 -99 122 -227s-29 -228 -122 -228zM148 305c55 0 69 80 69 181c0 100 -14 180 -69 180s-69 -80 -69 -180c0 -101 14 -181 69 -181z" />
    <glyph glyph-name="one.numerator" 
d="M57 268v48h74v295c0 12 2 24 2 24h-3s-1 -9 -14 -26l-31 -38l-31 31l81 101h47v-387h71v-48h-196z" />
    <glyph glyph-name="two.numerator" 
d="M39 268c-1 10 -3 18 -3 31c0 152 165 171 165 290c0 50 -29 74 -67 74c-31 0 -52 -16 -65 -39l-34 30c15 31 55 59 106 59c63 0 113 -42 113 -120c0 -141 -163 -171 -166 -277h171v-48h-220z" />
    <glyph glyph-name="three.numerator" 
d="M128 258c-38 0 -72 14 -98 39l25 42c16 -19 42 -32 69 -32c45 0 82 31 82 88c0 54 -33 84 -92 84h-29l-10 33l89 122c8 11 18 20 18 20v2s-10 -1 -29 -1h-108v48h204v-33l-111 -149c69 -5 121 -45 121 -125c0 -81 -53 -138 -131 -138z" />
    <glyph glyph-name="four.numerator" 
d="M178 268v116h-164v39l157 280h56v-274h49v-45h-49v-116h-49zM69 429h109v146c0 27 1 56 1 56h-2s-10 -25 -22 -47l-86 -153v-2z" />
    <glyph glyph-name="five.numerator" 
d="M133 258c-36 0 -71 15 -100 40l23 41c17 -19 50 -32 74 -32c47 0 79 40 79 96c0 63 -38 95 -82 95c-19 0 -36 -4 -52 -13l-25 10l17 208h172v-48h-128l-8 -94c0 -8 -2 -23 -2 -23h2c8 4 21 6 34 6c63 0 125 -52 125 -142c0 -84 -55 -144 -129 -144z" />
    <glyph glyph-name="six.numerator" 
d="M158 258c-86 0 -128 87 -128 209c0 111 35 246 156 246c22 0 48 -4 67 -15l-15 -46c-11 6 -31 12 -51 12c-77 0 -98 -85 -104 -161h1c17 27 42 44 81 44c69 0 109 -57 109 -142c0 -91 -47 -147 -116 -147zM160 306c39 0 61 41 61 100c0 58 -20 97 -66 97
c-42 0 -71 -31 -71 -78c0 -38 18 -119 76 -119z" />
    <glyph glyph-name="seven.numerator" 
d="M51 268l132 324c15 35 28 63 28 63v2s-16 -2 -39 -2h-134v48h229v-36l-161 -399h-55z" />
    <glyph glyph-name="eight.numerator" 
d="M145 257c-74 0 -118 54 -118 122c0 73 48 114 65 127c-29 24 -51 54 -51 100c0 51 27 106 109 106c79 0 109 -51 109 -106c0 -64 -40 -109 -52 -121c33 -24 61 -54 61 -105c0 -66 -46 -123 -123 -123zM216 379c0 53 -48 76 -92 105c-16 -14 -45 -44 -45 -100
c0 -50 27 -81 68 -81c45 0 69 37 69 76zM92 608c0 -52 41 -77 80 -102c12 13 37 47 37 94c0 39 -18 66 -60 66s-57 -27 -57 -58z" />
    <glyph glyph-name="nine.numerator" 
d="M110 258c-22 0 -50 6 -68 15l16 46c11 -5 31 -12 51 -12c77 0 98 86 104 162h-1c-17 -28 -40 -45 -78 -45c-67 0 -109 58 -109 142c0 91 50 147 116 147c86 0 125 -86 125 -209c0 -111 -35 -246 -156 -246zM144 469c42 0 68 30 68 78c0 37 -15 118 -73 118
c-37 0 -61 -41 -61 -100c0 -57 22 -96 66 -96z" />
    <glyph glyph-name="zerosuperior" unicode="&#x2070;" 
d="M148 413c-94 0 -122 100 -122 228s28 227 122 227c93 0 122 -99 122 -227s-29 -228 -122 -228zM148 460c55 0 69 80 69 181c0 100 -14 180 -69 180s-69 -80 -69 -180c0 -101 14 -181 69 -181z" />
    <glyph glyph-name="foursuperior" unicode="&#x2074;" 
d="M178 423v116h-164v39l157 280h56v-274h49v-45h-49v-116h-49zM69 584h109v146c0 27 1 56 1 56h-2s-10 -25 -22 -47l-86 -153v-2z" />
    <glyph glyph-name="fivesuperior" unicode="&#x2075;" 
d="M133 413c-36 0 -71 15 -100 40l23 41c17 -19 50 -32 74 -32c47 0 79 40 79 96c0 63 -38 95 -82 95c-19 0 -36 -4 -52 -13l-25 10l17 208h172v-48h-128l-8 -94c0 -8 -2 -23 -2 -23h2c8 4 21 6 34 6c63 0 125 -52 125 -142c0 -84 -55 -144 -129 -144z" />
    <glyph glyph-name="sixsuperior" unicode="&#x2076;" 
d="M158 413c-86 0 -128 87 -128 209c0 111 35 246 156 246c22 0 48 -4 67 -15l-15 -46c-11 6 -31 12 -51 12c-77 0 -98 -85 -104 -161h1c17 27 42 44 81 44c69 0 109 -57 109 -142c0 -91 -47 -147 -116 -147zM160 461c39 0 61 41 61 100c0 58 -20 97 -66 97
c-42 0 -71 -31 -71 -78c0 -38 18 -119 76 -119z" />
    <glyph glyph-name="sevensuperior" unicode="&#x2077;" 
d="M51 423l132 324c15 35 28 63 28 63v2s-16 -2 -39 -2h-134v48h229v-36l-161 -399h-55z" />
    <glyph glyph-name="eightsuperior" unicode="&#x2078;" 
d="M145 413c-74 0 -118 54 -118 122c0 73 48 114 65 127c-29 24 -51 54 -51 100c0 51 27 106 109 106c79 0 109 -51 109 -106c0 -64 -40 -109 -52 -121c33 -24 61 -54 61 -105c0 -66 -46 -123 -123 -123zM216 535c0 53 -48 76 -92 105c-16 -14 -45 -44 -45 -100
c0 -50 27 -81 68 -81c45 0 69 37 69 76zM92 764c0 -52 41 -77 80 -102c12 13 37 47 37 94c0 39 -18 66 -60 66s-57 -27 -57 -58z" />
    <glyph glyph-name="ninesuperior" unicode="&#x2079;" 
d="M110 413c-22 0 -50 6 -68 15l16 46c11 -5 31 -12 51 -12c77 0 98 86 104 162h-1c-17 -28 -40 -45 -78 -45c-67 0 -109 58 -109 142c0 91 50 147 116 147c86 0 125 -86 125 -209c0 -111 -35 -246 -156 -246zM144 624c42 0 68 30 68 78c0 37 -15 118 -73 118
c-37 0 -61 -41 -61 -100c0 -57 22 -96 66 -96z" />
    <glyph glyph-name="zeroinferior" unicode="&#x2080;" 
d="M148 -167c-94 0 -122 100 -122 228s28 227 122 227c93 0 122 -99 122 -227s-29 -228 -122 -228zM148 -120c55 0 69 80 69 181c0 100 -14 180 -69 180s-69 -80 -69 -180c0 -101 14 -181 69 -181z" />
    <glyph glyph-name="oneinferior" unicode="&#x2081;" 
d="M57 -157v48h74v295c0 12 2 24 2 24h-3s-1 -9 -14 -26l-31 -38l-31 31l81 101h47v-387h71v-48h-196z" />
    <glyph glyph-name="twoinferior" unicode="&#x2082;" 
d="M39 -157c-1 10 -3 18 -3 31c0 152 165 171 165 290c0 50 -29 74 -67 74c-31 0 -52 -16 -65 -39l-34 30c15 31 55 59 106 59c63 0 113 -42 113 -120c0 -141 -163 -171 -166 -277h171v-48h-220z" />
    <glyph glyph-name="threeinferior" unicode="&#x2083;" 
d="M128 -167c-38 0 -72 14 -98 39l25 42c16 -19 42 -32 69 -32c45 0 82 31 82 88c0 54 -33 84 -92 84h-29l-10 33l89 122c8 11 18 20 18 20v2s-10 -1 -29 -1h-108v48h204v-33l-111 -149c69 -5 121 -45 121 -125c0 -81 -53 -138 -131 -138z" />
    <glyph glyph-name="fourinferior" unicode="&#x2084;" 
d="M178 -157v116h-164v39l157 280h56v-274h49v-45h-49v-116h-49zM69 4h109v146c0 27 1 56 1 56h-2s-10 -25 -22 -47l-86 -153v-2z" />
    <glyph glyph-name="fiveinferior" unicode="&#x2085;" 
d="M133 -167c-36 0 -71 15 -100 40l23 41c17 -19 50 -32 74 -32c47 0 79 40 79 96c0 63 -38 95 -82 95c-19 0 -36 -4 -52 -13l-25 10l17 208h172v-48h-128l-8 -94c0 -8 -2 -23 -2 -23h2c8 4 21 6 34 6c63 0 125 -52 125 -142c0 -84 -55 -144 -129 -144z" />
    <glyph glyph-name="sixinferior" unicode="&#x2086;" 
d="M158 -167c-86 0 -128 87 -128 209c0 111 35 246 156 246c22 0 48 -4 67 -15l-15 -46c-11 6 -31 12 -51 12c-77 0 -98 -85 -104 -161h1c17 27 42 44 81 44c69 0 109 -57 109 -142c0 -91 -47 -147 -116 -147zM160 -119c39 0 61 41 61 100c0 58 -20 97 -66 97
c-42 0 -71 -31 -71 -78c0 -38 18 -119 76 -119z" />
    <glyph glyph-name="seveninferior" unicode="&#x2087;" 
d="M51 -157l132 324c15 35 28 63 28 63v2s-16 -2 -39 -2h-134v48h229v-36l-161 -399h-55z" />
    <glyph glyph-name="eightinferior" unicode="&#x2088;" 
d="M145 -166c-74 0 -118 54 -118 122c0 73 48 114 65 127c-29 24 -51 54 -51 100c0 51 27 106 109 106c79 0 109 -51 109 -106c0 -64 -40 -109 -52 -121c33 -24 61 -54 61 -105c0 -66 -46 -123 -123 -123zM216 -44c0 53 -48 76 -92 105c-16 -14 -45 -44 -45 -100
c0 -50 27 -81 68 -81c45 0 69 37 69 76zM92 185c0 -52 41 -77 80 -102c12 13 37 47 37 94c0 39 -18 66 -60 66s-57 -27 -57 -58z" />
    <glyph glyph-name="nineinferior" unicode="&#x2089;" 
d="M110 -167c-22 0 -50 6 -68 15l16 46c11 -5 31 -12 51 -12c77 0 98 86 104 162h-1c-17 -28 -40 -45 -78 -45c-67 0 -109 58 -109 142c0 91 50 147 116 147c86 0 125 -86 125 -209c0 -111 -35 -246 -156 -246zM144 44c42 0 68 30 68 78c0 37 -15 118 -73 118
c-37 0 -61 -41 -61 -100c0 -57 22 -96 66 -96z" />
    <glyph glyph-name="zero.denominator" 
d="M148 -10c-94 0 -122 100 -122 228s28 227 122 227c93 0 122 -99 122 -227s-29 -228 -122 -228zM148 37c55 0 69 80 69 181c0 100 -14 180 -69 180s-69 -80 -69 -180c0 -101 14 -181 69 -181z" />
    <glyph glyph-name="one.denominator" 
d="M57 0v48h74v295c0 12 2 24 2 24h-3s-1 -9 -14 -26l-31 -38l-31 31l81 101h47v-387h71v-48h-196z" />
    <glyph glyph-name="two.denominator" 
d="M39 0c-1 10 -3 18 -3 31c0 152 165 171 165 290c0 50 -29 74 -67 74c-31 0 -52 -16 -65 -39l-34 30c15 31 55 59 106 59c63 0 113 -42 113 -120c0 -141 -163 -171 -166 -277h171v-48h-220z" />
    <glyph glyph-name="three.denominator" 
d="M128 -10c-38 0 -72 14 -98 39l25 42c16 -19 42 -32 69 -32c45 0 82 31 82 88c0 54 -33 84 -92 84h-29l-10 33l89 122c8 11 18 20 18 20v2s-10 -1 -29 -1h-108v48h204v-33l-111 -149c69 -5 121 -45 121 -125c0 -81 -53 -138 -131 -138z" />
    <glyph glyph-name="four.denominator" 
d="M178 0v116h-164v39l157 280h56v-274h49v-45h-49v-116h-49zM69 161h109v146c0 27 1 56 1 56h-2s-10 -25 -22 -47l-86 -153v-2z" />
    <glyph glyph-name="five.denominator" 
d="M133 -10c-36 0 -71 15 -100 40l23 41c17 -19 50 -32 74 -32c47 0 79 40 79 96c0 63 -38 95 -82 95c-19 0 -36 -4 -52 -13l-25 10l17 208h172v-48h-128l-8 -94c0 -8 -2 -23 -2 -23h2c8 4 21 6 34 6c63 0 125 -52 125 -142c0 -84 -55 -144 -129 -144z" />
    <glyph glyph-name="six.denominator" 
d="M158 -10c-86 0 -128 87 -128 209c0 111 35 246 156 246c22 0 48 -4 67 -15l-15 -46c-11 6 -31 12 -51 12c-77 0 -98 -85 -104 -161h1c17 27 42 44 81 44c69 0 109 -57 109 -142c0 -91 -47 -147 -116 -147zM160 38c39 0 61 41 61 100c0 58 -20 97 -66 97
c-42 0 -71 -31 -71 -78c0 -38 18 -119 76 -119z" />
    <glyph glyph-name="seven.denominator" 
d="M51 0l132 324c15 35 28 63 28 63v2s-16 -2 -39 -2h-134v48h229v-36l-161 -399h-55z" />
    <glyph glyph-name="eight.denominator" 
d="M145 -10c-74 0 -118 54 -118 122c0 73 48 114 65 127c-29 24 -51 54 -51 100c0 51 27 106 109 106c79 0 109 -51 109 -106c0 -64 -40 -109 -52 -121c33 -24 61 -54 61 -105c0 -66 -46 -123 -123 -123zM216 112c0 53 -48 76 -92 105c-16 -14 -45 -44 -45 -100
c0 -50 27 -81 68 -81c45 0 69 37 69 76zM92 341c0 -52 41 -77 80 -102c12 13 37 47 37 94c0 39 -18 66 -60 66s-57 -27 -57 -58z" />
    <glyph glyph-name="nine.denominator" 
d="M110 -10c-22 0 -50 6 -68 15l16 46c11 -5 31 -12 51 -12c77 0 98 86 104 162h-1c-17 -28 -40 -45 -78 -45c-67 0 -109 58 -109 142c0 91 50 147 116 147c86 0 125 -86 125 -209c0 -111 -35 -246 -156 -246zM144 201c42 0 68 30 68 78c0 37 -15 118 -73 118
c-37 0 -61 -41 -61 -100c0 -57 22 -96 66 -96z" />
    <glyph glyph-name="thinspace" unicode="&#x2009;" horiz-adv-x="11" 
 />
    <glyph glyph-name="uni00A0" unicode="&#xa0;" horiz-adv-x="198" 
 />
    <glyph glyph-name="uni00AD" unicode="&#xad;" horiz-adv-x="340" 
d="M59 253v62h222v-62h-222z" />
    </font>
</defs>
</svg>
